<mxfile host="app.diagrams.net" agent="Mozilla/5.0 (Windows NT 10.0; Win64; x64) AppleWebKit/537.36 (KHTML, like Gecko) Chrome/128.0.0.0 Safari/537.36" version="24.7.10">
  <diagram name="Page-1" id="hJWBBYOkZm1Py5gKTgX2">
    <mxGraphModel dx="5608" dy="3312" grid="1" gridSize="10" guides="1" tooltips="1" connect="1" arrows="1" fold="1" page="1" pageScale="1" pageWidth="850" pageHeight="1100" math="0" shadow="0">
      <root>
        <mxCell id="0" />
        <mxCell id="1" parent="0" />
        <mxCell id="gpkW7kSRFp9-6F2mUtem-1" value="33b + 33b" style="ellipse;whiteSpace=wrap;html=1;aspect=fixed;" parent="1" vertex="1">
          <mxGeometry x="147" y="-82" width="80" height="80" as="geometry" />
        </mxCell>
        <mxCell id="gpkW7kSRFp9-6F2mUtem-2" value="64b &amp;gt;&amp;gt; 5b" style="ellipse;whiteSpace=wrap;html=1;aspect=fixed;" parent="1" vertex="1">
          <mxGeometry x="144" y="-240" width="80" height="80" as="geometry" />
        </mxCell>
        <mxCell id="gpkW7kSRFp9-6F2mUtem-3" value="adder_q" style="shape=trapezoid;perimeter=trapezoidPerimeter;whiteSpace=wrap;html=1;fixedSize=1;direction=south;" parent="1" vertex="1">
          <mxGeometry x="439" y="-90" width="60" height="120" as="geometry" />
        </mxCell>
        <mxCell id="gpkW7kSRFp9-6F2mUtem-4" value="" style="endArrow=none;html=1;rounded=0;exitX=0.982;exitY=0.5;exitDx=0;exitDy=0;exitPerimeter=0;" parent="1" source="gpkW7kSRFp9-6F2mUtem-2" edge="1">
          <mxGeometry width="50" height="50" relative="1" as="geometry">
            <mxPoint x="230" y="-30" as="sourcePoint" />
            <mxPoint x="260" y="-200" as="targetPoint" />
          </mxGeometry>
        </mxCell>
        <mxCell id="gpkW7kSRFp9-6F2mUtem-5" value="" style="endArrow=none;html=1;rounded=0;" parent="1" edge="1">
          <mxGeometry width="50" height="50" relative="1" as="geometry">
            <mxPoint x="260" y="-150" as="sourcePoint" />
            <mxPoint x="260" y="-200" as="targetPoint" />
          </mxGeometry>
        </mxCell>
        <mxCell id="gpkW7kSRFp9-6F2mUtem-6" value="" style="endArrow=none;html=1;rounded=0;" parent="1" edge="1">
          <mxGeometry width="50" height="50" relative="1" as="geometry">
            <mxPoint x="260" y="-200" as="sourcePoint" />
            <mxPoint x="260" y="-240" as="targetPoint" />
          </mxGeometry>
        </mxCell>
        <mxCell id="gpkW7kSRFp9-6F2mUtem-7" value="" style="endArrow=none;html=1;rounded=0;exitX=0.982;exitY=0.5;exitDx=0;exitDy=0;exitPerimeter=0;" parent="1" edge="1">
          <mxGeometry width="50" height="50" relative="1" as="geometry">
            <mxPoint x="260" y="-240" as="sourcePoint" />
            <mxPoint x="330" y="-240" as="targetPoint" />
          </mxGeometry>
        </mxCell>
        <mxCell id="gpkW7kSRFp9-6F2mUtem-9" value="[63:32] discarded" style="text;html=1;align=center;verticalAlign=middle;whiteSpace=wrap;rounded=0;" parent="1" vertex="1">
          <mxGeometry x="260" y="-280" width="60" height="30" as="geometry" />
        </mxCell>
        <mxCell id="gpkW7kSRFp9-6F2mUtem-10" value="[31:0] shift_q" style="text;html=1;align=center;verticalAlign=middle;whiteSpace=wrap;rounded=0;" parent="1" vertex="1">
          <mxGeometry x="260" y="-190" width="60" height="30" as="geometry" />
        </mxCell>
        <mxCell id="gpkW7kSRFp9-6F2mUtem-11" value="" style="endArrow=none;html=1;rounded=0;exitX=0.982;exitY=0.5;exitDx=0;exitDy=0;exitPerimeter=0;entryX=0.083;entryY=1;entryDx=0;entryDy=0;entryPerimeter=0;" parent="1" target="gpkW7kSRFp9-6F2mUtem-35" edge="1">
          <mxGeometry width="50" height="50" relative="1" as="geometry">
            <mxPoint x="260" y="-150" as="sourcePoint" />
            <mxPoint x="530" y="-150" as="targetPoint" />
          </mxGeometry>
        </mxCell>
        <mxCell id="gpkW7kSRFp9-6F2mUtem-12" value="" style="endArrow=none;html=1;rounded=0;" parent="1" edge="1">
          <mxGeometry width="50" height="50" relative="1" as="geometry">
            <mxPoint x="230" y="-180" as="sourcePoint" />
            <mxPoint x="250" y="-220" as="targetPoint" />
          </mxGeometry>
        </mxCell>
        <mxCell id="gpkW7kSRFp9-6F2mUtem-14" value="" style="endArrow=none;html=1;rounded=0;" parent="1" edge="1">
          <mxGeometry width="50" height="50" relative="1" as="geometry">
            <mxPoint x="330" y="-230" as="sourcePoint" />
            <mxPoint x="330" y="-250" as="targetPoint" />
          </mxGeometry>
        </mxCell>
        <mxCell id="gpkW7kSRFp9-6F2mUtem-23" value="" style="endArrow=none;html=1;rounded=0;exitX=0.982;exitY=0.5;exitDx=0;exitDy=0;exitPerimeter=0;" parent="1" edge="1">
          <mxGeometry width="50" height="50" relative="1" as="geometry">
            <mxPoint x="224" y="-40" as="sourcePoint" />
            <mxPoint x="261" y="-40" as="targetPoint" />
          </mxGeometry>
        </mxCell>
        <mxCell id="gpkW7kSRFp9-6F2mUtem-24" value="" style="endArrow=none;html=1;rounded=0;" parent="1" edge="1">
          <mxGeometry width="50" height="50" relative="1" as="geometry">
            <mxPoint x="261" y="10" as="sourcePoint" />
            <mxPoint x="261" y="-40" as="targetPoint" />
          </mxGeometry>
        </mxCell>
        <mxCell id="gpkW7kSRFp9-6F2mUtem-25" value="" style="endArrow=none;html=1;rounded=0;" parent="1" edge="1">
          <mxGeometry width="50" height="50" relative="1" as="geometry">
            <mxPoint x="261" y="-40" as="sourcePoint" />
            <mxPoint x="261" y="-80" as="targetPoint" />
          </mxGeometry>
        </mxCell>
        <mxCell id="gpkW7kSRFp9-6F2mUtem-26" value="" style="endArrow=none;html=1;rounded=0;exitX=0.982;exitY=0.5;exitDx=0;exitDy=0;exitPerimeter=0;" parent="1" edge="1">
          <mxGeometry width="50" height="50" relative="1" as="geometry">
            <mxPoint x="261" y="-80" as="sourcePoint" />
            <mxPoint x="331" y="-80" as="targetPoint" />
          </mxGeometry>
        </mxCell>
        <mxCell id="gpkW7kSRFp9-6F2mUtem-27" value="[31:0]" style="text;html=1;align=center;verticalAlign=middle;whiteSpace=wrap;rounded=0;" parent="1" vertex="1">
          <mxGeometry x="259" y="-20" width="60" height="30" as="geometry" />
        </mxCell>
        <mxCell id="gpkW7kSRFp9-6F2mUtem-28" value="" style="endArrow=none;html=1;rounded=0;exitX=0.982;exitY=0.5;exitDx=0;exitDy=0;exitPerimeter=0;entryX=0.835;entryY=1.013;entryDx=0;entryDy=0;entryPerimeter=0;" parent="1" target="gpkW7kSRFp9-6F2mUtem-3" edge="1">
          <mxGeometry width="50" height="50" relative="1" as="geometry">
            <mxPoint x="261" y="10" as="sourcePoint" />
            <mxPoint x="331" y="10" as="targetPoint" />
          </mxGeometry>
        </mxCell>
        <mxCell id="gpkW7kSRFp9-6F2mUtem-29" value="" style="endArrow=none;html=1;rounded=0;" parent="1" edge="1">
          <mxGeometry width="50" height="50" relative="1" as="geometry">
            <mxPoint x="231" y="-20" as="sourcePoint" />
            <mxPoint x="251" y="-60" as="targetPoint" />
          </mxGeometry>
        </mxCell>
        <mxCell id="gpkW7kSRFp9-6F2mUtem-31" value="[32]&lt;br&gt;carry " style="text;html=1;align=center;verticalAlign=middle;whiteSpace=wrap;rounded=0;" parent="1" vertex="1">
          <mxGeometry x="259" y="-120" width="60" height="30" as="geometry" />
        </mxCell>
        <mxCell id="gpkW7kSRFp9-6F2mUtem-32" value="{31&#39;b0, in}&lt;br&gt;Zero-extend&lt;br&gt;1b to 32b" style="ellipse;whiteSpace=wrap;html=1;aspect=fixed;" parent="1" vertex="1">
          <mxGeometry x="329" y="-120" width="80" height="80" as="geometry" />
        </mxCell>
        <mxCell id="gpkW7kSRFp9-6F2mUtem-33" value="" style="endArrow=none;html=1;rounded=0;exitX=0.982;exitY=0.5;exitDx=0;exitDy=0;exitPerimeter=0;" parent="1" edge="1">
          <mxGeometry width="50" height="50" relative="1" as="geometry">
            <mxPoint x="409" y="-80" as="sourcePoint" />
            <mxPoint x="439" y="-80" as="targetPoint" />
          </mxGeometry>
        </mxCell>
        <mxCell id="gpkW7kSRFp9-6F2mUtem-34" value="" style="endArrow=none;html=1;rounded=0;exitX=0.982;exitY=0.5;exitDx=0;exitDy=0;exitPerimeter=0;" parent="1" edge="1">
          <mxGeometry width="50" height="50" relative="1" as="geometry">
            <mxPoint x="499" y="-30.19999999999999" as="sourcePoint" />
            <mxPoint x="530" y="-30" as="targetPoint" />
          </mxGeometry>
        </mxCell>
        <mxCell id="gpkW7kSRFp9-6F2mUtem-35" value="alu_q" style="shape=trapezoid;perimeter=trapezoidPerimeter;whiteSpace=wrap;html=1;fixedSize=1;direction=south;" parent="1" vertex="1">
          <mxGeometry x="550" y="-160" width="60" height="120" as="geometry" />
        </mxCell>
        <mxCell id="gpkW7kSRFp9-6F2mUtem-36" value="" style="endArrow=none;html=1;rounded=0;" parent="1" edge="1">
          <mxGeometry width="50" height="50" relative="1" as="geometry">
            <mxPoint x="530" y="-50" as="sourcePoint" />
            <mxPoint x="530" y="-30" as="targetPoint" />
          </mxGeometry>
        </mxCell>
        <mxCell id="gpkW7kSRFp9-6F2mUtem-37" value="" style="endArrow=none;html=1;rounded=0;" parent="1" edge="1">
          <mxGeometry width="50" height="50" relative="1" as="geometry">
            <mxPoint x="530" y="-50" as="sourcePoint" />
            <mxPoint x="550" y="-49.80000000000001" as="targetPoint" />
          </mxGeometry>
        </mxCell>
        <mxCell id="gpkW7kSRFp9-6F2mUtem-38" value="" style="endArrow=classic;html=1;rounded=0;exitX=0.5;exitY=0;exitDx=0;exitDy=0;entryX=0.974;entryY=1.158;entryDx=0;entryDy=0;entryPerimeter=0;" parent="1" source="gpkW7kSRFp9-6F2mUtem-35" target="gpkW7kSRFp9-6F2mUtem-42" edge="1">
          <mxGeometry width="50" height="50" relative="1" as="geometry">
            <mxPoint x="770" y="-20" as="sourcePoint" />
            <mxPoint x="820" y="-90" as="targetPoint" />
          </mxGeometry>
        </mxCell>
        <mxCell id="gpkW7kSRFp9-6F2mUtem-39" value="" style="endArrow=none;html=1;rounded=0;" parent="1" edge="1">
          <mxGeometry width="50" height="50" relative="1" as="geometry">
            <mxPoint x="730" y="-70" as="sourcePoint" />
            <mxPoint x="750" y="-110" as="targetPoint" />
          </mxGeometry>
        </mxCell>
        <mxCell id="gpkW7kSRFp9-6F2mUtem-40" value=".result" style="text;html=1;align=center;verticalAlign=middle;whiteSpace=wrap;rounded=0;" parent="1" vertex="1">
          <mxGeometry x="640" y="-130" width="60" height="30" as="geometry" />
        </mxCell>
        <mxCell id="gpkW7kSRFp9-6F2mUtem-42" value="out" style="text;html=1;align=center;verticalAlign=middle;whiteSpace=wrap;rounded=0;" parent="1" vertex="1">
          <mxGeometry x="760" y="-120" width="60" height="20" as="geometry" />
        </mxCell>
        <mxCell id="gpkW7kSRFp9-6F2mUtem-46" value="" style="shape=link;html=1;rounded=0;" parent="1" edge="1">
          <mxGeometry width="100" relative="1" as="geometry">
            <mxPoint x="820" y="-60" as="sourcePoint" />
            <mxPoint x="820" y="-210" as="targetPoint" />
          </mxGeometry>
        </mxCell>
        <mxCell id="gpkW7kSRFp9-6F2mUtem-47" value="" style="endArrow=classic;html=1;rounded=0;" parent="1" edge="1">
          <mxGeometry width="50" height="50" relative="1" as="geometry">
            <mxPoint x="670" y="-170" as="sourcePoint" />
            <mxPoint x="820" y="-170" as="targetPoint" />
          </mxGeometry>
        </mxCell>
        <mxCell id="gpkW7kSRFp9-6F2mUtem-48" value="valid_o" style="text;html=1;align=center;verticalAlign=middle;whiteSpace=wrap;rounded=0;" parent="1" vertex="1">
          <mxGeometry x="750" y="-210" width="60" height="30" as="geometry" />
        </mxCell>
        <mxCell id="gpkW7kSRFp9-6F2mUtem-49" value="&lt;div&gt;out = in;&lt;br&gt;&lt;br&gt;&lt;/div&gt;&lt;div&gt;if (flush_req)&lt;br&gt;&lt;/div&gt;&amp;nbsp;out = 0;" style="ellipse;whiteSpace=wrap;html=1;aspect=fixed;" parent="1" vertex="1">
          <mxGeometry x="499" y="-410" width="90" height="90" as="geometry" />
        </mxCell>
        <mxCell id="gpkW7kSRFp9-6F2mUtem-52" value="" style="endArrow=none;html=1;rounded=0;" parent="1" edge="1">
          <mxGeometry width="50" height="50" relative="1" as="geometry">
            <mxPoint x="590" y="-365" as="sourcePoint" />
            <mxPoint x="670" y="-365.24" as="targetPoint" />
          </mxGeometry>
        </mxCell>
        <mxCell id="gpkW7kSRFp9-6F2mUtem-53" value="" style="endArrow=none;html=1;rounded=0;" parent="1" edge="1">
          <mxGeometry width="50" height="50" relative="1" as="geometry">
            <mxPoint x="670" y="-170" as="sourcePoint" />
            <mxPoint x="670" y="-370" as="targetPoint" />
          </mxGeometry>
        </mxCell>
        <mxCell id="gpkW7kSRFp9-6F2mUtem-54" value="" style="shape=link;html=1;rounded=0;" parent="1" edge="1">
          <mxGeometry width="100" relative="1" as="geometry">
            <mxPoint x="-20" y="130" as="sourcePoint" />
            <mxPoint x="-20" y="-440" as="targetPoint" />
          </mxGeometry>
        </mxCell>
        <mxCell id="gpkW7kSRFp9-6F2mUtem-55" value="" style="endArrow=none;html=1;rounded=0;" parent="1" edge="1">
          <mxGeometry width="50" height="50" relative="1" as="geometry">
            <mxPoint x="80" y="-200" as="sourcePoint" />
            <mxPoint x="144" y="-200.24" as="targetPoint" />
          </mxGeometry>
        </mxCell>
        <mxCell id="gpkW7kSRFp9-6F2mUtem-56" value="" style="endArrow=none;html=1;rounded=0;" parent="1" edge="1">
          <mxGeometry width="50" height="50" relative="1" as="geometry">
            <mxPoint x="110" y="-180" as="sourcePoint" />
            <mxPoint x="130" y="-220" as="targetPoint" />
          </mxGeometry>
        </mxCell>
        <mxCell id="gpkW7kSRFp9-6F2mUtem-57" value="" style="endArrow=none;html=1;rounded=0;" parent="1" edge="1">
          <mxGeometry width="50" height="50" relative="1" as="geometry">
            <mxPoint x="80" y="-160" as="sourcePoint" />
            <mxPoint x="80" y="-240" as="targetPoint" />
          </mxGeometry>
        </mxCell>
        <mxCell id="gpkW7kSRFp9-6F2mUtem-58" value="" style="endArrow=none;html=1;rounded=0;" parent="1" edge="1">
          <mxGeometry width="50" height="50" relative="1" as="geometry">
            <mxPoint x="-20" y="-240" as="sourcePoint" />
            <mxPoint x="84" y="-240" as="targetPoint" />
          </mxGeometry>
        </mxCell>
        <mxCell id="gpkW7kSRFp9-6F2mUtem-59" value="" style="endArrow=none;html=1;rounded=0;" parent="1" edge="1">
          <mxGeometry width="50" height="50" relative="1" as="geometry">
            <mxPoint x="-20" y="-160" as="sourcePoint" />
            <mxPoint x="84" y="-160.48" as="targetPoint" />
          </mxGeometry>
        </mxCell>
        <mxCell id="gpkW7kSRFp9-6F2mUtem-60" value="[63:32] shift_hi" style="text;html=1;align=center;verticalAlign=middle;whiteSpace=wrap;rounded=0;" parent="1" vertex="1">
          <mxGeometry x="20" y="-280" width="60" height="30" as="geometry" />
        </mxCell>
        <mxCell id="gpkW7kSRFp9-6F2mUtem-61" value="[31:0] shift_lo" style="text;html=1;align=center;verticalAlign=middle;whiteSpace=wrap;rounded=0;" parent="1" vertex="1">
          <mxGeometry x="20" y="-200" width="60" height="30" as="geometry" />
        </mxCell>
        <mxCell id="gpkW7kSRFp9-6F2mUtem-63" value="" style="endArrow=none;html=1;rounded=0;" parent="1" edge="1">
          <mxGeometry width="50" height="50" relative="1" as="geometry">
            <mxPoint x="183.70999999999998" y="-240" as="sourcePoint" />
            <mxPoint x="184" y="-310" as="targetPoint" />
          </mxGeometry>
        </mxCell>
        <mxCell id="gpkW7kSRFp9-6F2mUtem-64" value="" style="endArrow=none;html=1;rounded=0;" parent="1" edge="1">
          <mxGeometry width="50" height="50" relative="1" as="geometry">
            <mxPoint x="-20" y="-310" as="sourcePoint" />
            <mxPoint x="190" y="-310" as="targetPoint" />
          </mxGeometry>
        </mxCell>
        <mxCell id="gpkW7kSRFp9-6F2mUtem-66" value="shift_count" style="text;html=1;align=center;verticalAlign=middle;whiteSpace=wrap;rounded=0;" parent="1" vertex="1">
          <mxGeometry x="20" y="-350" width="60" height="30" as="geometry" />
        </mxCell>
        <mxCell id="gpkW7kSRFp9-6F2mUtem-72" value="" style="endArrow=none;html=1;rounded=0;" parent="1" edge="1">
          <mxGeometry width="50" height="50" relative="1" as="geometry">
            <mxPoint x="80" y="-50" as="sourcePoint" />
            <mxPoint x="80" y="-82.09" as="targetPoint" />
          </mxGeometry>
        </mxCell>
        <mxCell id="gpkW7kSRFp9-6F2mUtem-73" value="" style="endArrow=none;html=1;rounded=0;" parent="1" edge="1">
          <mxGeometry width="50" height="50" relative="1" as="geometry">
            <mxPoint x="-20" y="-80" as="sourcePoint" />
            <mxPoint x="84" y="-82.09" as="targetPoint" />
          </mxGeometry>
        </mxCell>
        <mxCell id="gpkW7kSRFp9-6F2mUtem-74" value="" style="endArrow=none;html=1;rounded=0;" parent="1" edge="1">
          <mxGeometry width="50" height="50" relative="1" as="geometry">
            <mxPoint x="-20" as="sourcePoint" />
            <mxPoint x="84" y="-2.569999999999993" as="targetPoint" />
          </mxGeometry>
        </mxCell>
        <mxCell id="gpkW7kSRFp9-6F2mUtem-75" value="adder_a" style="text;html=1;align=center;verticalAlign=middle;whiteSpace=wrap;rounded=0;" parent="1" vertex="1">
          <mxGeometry x="20" y="-122.09" width="60" height="30" as="geometry" />
        </mxCell>
        <mxCell id="gpkW7kSRFp9-6F2mUtem-76" value="adder_b" style="text;html=1;align=center;verticalAlign=middle;whiteSpace=wrap;rounded=0;" parent="1" vertex="1">
          <mxGeometry x="20" y="-42.09" width="60" height="30" as="geometry" />
        </mxCell>
        <mxCell id="gpkW7kSRFp9-6F2mUtem-77" value="" style="endArrow=none;html=1;rounded=0;" parent="1" edge="1">
          <mxGeometry width="50" height="50" relative="1" as="geometry">
            <mxPoint x="79.72000000000003" y="-2" as="sourcePoint" />
            <mxPoint x="79.72000000000003" y="-34.09" as="targetPoint" />
          </mxGeometry>
        </mxCell>
        <mxCell id="gpkW7kSRFp9-6F2mUtem-78" value="" style="endArrow=none;html=1;rounded=0;" parent="1" edge="1">
          <mxGeometry width="50" height="50" relative="1" as="geometry">
            <mxPoint x="80" y="-29.900000000000034" as="sourcePoint" />
            <mxPoint x="149" y="-30" as="targetPoint" />
          </mxGeometry>
        </mxCell>
        <mxCell id="gpkW7kSRFp9-6F2mUtem-79" value="" style="endArrow=none;html=1;rounded=0;" parent="1" edge="1">
          <mxGeometry width="50" height="50" relative="1" as="geometry">
            <mxPoint x="80" y="-49.900000000000034" as="sourcePoint" />
            <mxPoint x="149" y="-50" as="targetPoint" />
          </mxGeometry>
        </mxCell>
        <mxCell id="gpkW7kSRFp9-6F2mUtem-80" value="" style="endArrow=none;html=1;rounded=0;" parent="1" edge="1">
          <mxGeometry width="50" height="50" relative="1" as="geometry">
            <mxPoint x="470" y="90" as="sourcePoint" />
            <mxPoint x="468.71000000000004" y="20" as="targetPoint" />
          </mxGeometry>
        </mxCell>
        <mxCell id="gpkW7kSRFp9-6F2mUtem-81" value="" style="endArrow=none;html=1;rounded=0;" parent="1" edge="1">
          <mxGeometry width="50" height="50" relative="1" as="geometry">
            <mxPoint x="580" y="140" as="sourcePoint" />
            <mxPoint x="579.76" y="-52.09" as="targetPoint" />
          </mxGeometry>
        </mxCell>
        <mxCell id="gpkW7kSRFp9-6F2mUtem-82" value="" style="endArrow=none;html=1;rounded=0;entryX=0.007;entryY=0.47;entryDx=0;entryDy=0;entryPerimeter=0;" parent="1" target="gpkW7kSRFp9-6F2mUtem-49" edge="1">
          <mxGeometry width="50" height="50" relative="1" as="geometry">
            <mxPoint x="-20" y="-370" as="sourcePoint" />
            <mxPoint x="190" y="-370" as="targetPoint" />
          </mxGeometry>
        </mxCell>
        <mxCell id="gpkW7kSRFp9-6F2mUtem-83" value="valid_i" style="text;html=1;align=center;verticalAlign=middle;whiteSpace=wrap;rounded=0;" parent="1" vertex="1">
          <mxGeometry x="20" y="-400" width="60" height="30" as="geometry" />
        </mxCell>
        <mxCell id="gpkW7kSRFp9-6F2mUtem-85" value="" style="endArrow=none;html=1;rounded=0;" parent="1" edge="1">
          <mxGeometry width="50" height="50" relative="1" as="geometry">
            <mxPoint x="820" y="-210" as="sourcePoint" />
            <mxPoint x="820" y="-270" as="targetPoint" />
          </mxGeometry>
        </mxCell>
        <mxCell id="gpkW7kSRFp9-6F2mUtem-87" value="stall" style="text;html=1;align=center;verticalAlign=middle;whiteSpace=wrap;rounded=0;" parent="1" vertex="1">
          <mxGeometry x="770" y="-250" width="60" height="30" as="geometry" />
        </mxCell>
        <mxCell id="gpkW7kSRFp9-6F2mUtem-88" value="" style="endArrow=none;html=1;rounded=0;" parent="1" edge="1">
          <mxGeometry width="50" height="50" relative="1" as="geometry">
            <mxPoint x="-20" y="-440" as="sourcePoint" />
            <mxPoint x="-20" y="-500" as="targetPoint" />
          </mxGeometry>
        </mxCell>
        <mxCell id="gpkW7kSRFp9-6F2mUtem-89" value="stall" style="text;html=1;align=center;verticalAlign=middle;whiteSpace=wrap;rounded=0;" parent="1" vertex="1">
          <mxGeometry x="-70" y="-480" width="60" height="30" as="geometry" />
        </mxCell>
        <mxCell id="gpkW7kSRFp9-6F2mUtem-90" value="" style="endArrow=none;html=1;rounded=0;" parent="1" edge="1">
          <mxGeometry width="50" height="50" relative="1" as="geometry">
            <mxPoint x="-20" y="90" as="sourcePoint" />
            <mxPoint x="60" y="90" as="targetPoint" />
          </mxGeometry>
        </mxCell>
        <mxCell id="gpkW7kSRFp9-6F2mUtem-91" value="insn" style="text;html=1;align=center;verticalAlign=middle;whiteSpace=wrap;rounded=0;" parent="1" vertex="1">
          <mxGeometry y="60" width="60" height="30" as="geometry" />
        </mxCell>
        <mxCell id="gpkW7kSRFp9-6F2mUtem-92" value="" style="endArrow=none;html=1;rounded=0;fontStyle=4" parent="1" edge="1">
          <mxGeometry width="50" height="50" relative="1" as="geometry">
            <mxPoint x="50" y="110" as="sourcePoint" />
            <mxPoint x="70" y="70" as="targetPoint" />
          </mxGeometry>
        </mxCell>
        <mxCell id="gpkW7kSRFp9-6F2mUtem-95" value="" style="endArrow=none;html=1;rounded=0;" parent="1" edge="1">
          <mxGeometry width="50" height="50" relative="1" as="geometry">
            <mxPoint x="90" y="90" as="sourcePoint" />
            <mxPoint x="470" y="90" as="targetPoint" />
          </mxGeometry>
        </mxCell>
        <mxCell id="gpkW7kSRFp9-6F2mUtem-97" value="" style="endArrow=none;html=1;rounded=0;" parent="1" edge="1">
          <mxGeometry width="50" height="50" relative="1" as="geometry">
            <mxPoint x="60" y="90" as="sourcePoint" />
            <mxPoint x="90" y="90" as="targetPoint" />
          </mxGeometry>
        </mxCell>
        <mxCell id="gpkW7kSRFp9-6F2mUtem-98" value="" style="endArrow=none;html=1;rounded=0;" parent="1" edge="1">
          <mxGeometry width="50" height="50" relative="1" as="geometry">
            <mxPoint x="90" y="330" as="sourcePoint" />
            <mxPoint x="90" y="90" as="targetPoint" />
          </mxGeometry>
        </mxCell>
        <mxCell id="gpkW7kSRFp9-6F2mUtem-101" value="" style="endArrow=none;html=1;rounded=0;" parent="1" edge="1">
          <mxGeometry width="50" height="50" relative="1" as="geometry">
            <mxPoint x="90" y="132.57" as="sourcePoint" />
            <mxPoint x="580" y="140" as="targetPoint" />
          </mxGeometry>
        </mxCell>
        <mxCell id="gpkW7kSRFp9-6F2mUtem-102" value=".compare" style="text;html=1;align=center;verticalAlign=middle;whiteSpace=wrap;rounded=0;" parent="1" vertex="1">
          <mxGeometry x="110" y="60" width="60" height="30" as="geometry" />
        </mxCell>
        <mxCell id="gpkW7kSRFp9-6F2mUtem-103" value=".out_select" style="text;html=1;align=center;verticalAlign=middle;whiteSpace=wrap;rounded=0;" parent="1" vertex="1">
          <mxGeometry x="110" y="110" width="60" height="30" as="geometry" />
        </mxCell>
        <mxCell id="gpkW7kSRFp9-6F2mUtem-105" value="" style="endArrow=none;html=1;rounded=0;" parent="1" edge="1">
          <mxGeometry width="50" height="50" relative="1" as="geometry">
            <mxPoint x="710" y="-100" as="sourcePoint" />
            <mxPoint x="710" y="340" as="targetPoint" />
          </mxGeometry>
        </mxCell>
        <mxCell id="gpkW7kSRFp9-6F2mUtem-106" value="" style="endArrow=none;html=1;rounded=0;exitX=1;exitY=1;exitDx=0;exitDy=0;" parent="1" source="gpkW7kSRFp9-6F2mUtem-113" edge="1">
          <mxGeometry width="50" height="50" relative="1" as="geometry">
            <mxPoint x="630" y="-50" as="sourcePoint" />
            <mxPoint x="711" y="-52.20000000000002" as="targetPoint" />
          </mxGeometry>
        </mxCell>
        <mxCell id="gpkW7kSRFp9-6F2mUtem-107" value=".jump" style="text;html=1;align=center;verticalAlign=middle;whiteSpace=wrap;rounded=0;" parent="1" vertex="1">
          <mxGeometry x="640" y="-76" width="60" height="12" as="geometry" />
        </mxCell>
        <mxCell id="gpkW7kSRFp9-6F2mUtem-110" value="" style="endArrow=none;html=1;rounded=0;" parent="1" edge="1">
          <mxGeometry width="50" height="50" relative="1" as="geometry">
            <mxPoint x="630" y="-10" as="sourcePoint" />
            <mxPoint x="710" y="-10" as="targetPoint" />
          </mxGeometry>
        </mxCell>
        <mxCell id="gpkW7kSRFp9-6F2mUtem-111" value=".writeback" style="text;html=1;align=center;verticalAlign=middle;whiteSpace=wrap;rounded=0;" parent="1" vertex="1">
          <mxGeometry x="640" y="-34" width="60" height="12.09" as="geometry" />
        </mxCell>
        <mxCell id="gpkW7kSRFp9-6F2mUtem-112" value="1" style="text;html=1;align=center;verticalAlign=middle;whiteSpace=wrap;rounded=0;" parent="1" vertex="1">
          <mxGeometry x="620" y="-21.910000000000025" width="11" height="18" as="geometry" />
        </mxCell>
        <mxCell id="gpkW7kSRFp9-6F2mUtem-113" value="&lt;div&gt;0&lt;/div&gt;" style="text;html=1;align=center;verticalAlign=middle;whiteSpace=wrap;rounded=0;" parent="1" vertex="1">
          <mxGeometry x="620" y="-64" width="11" height="12" as="geometry" />
        </mxCell>
        <mxCell id="gpkW7kSRFp9-6F2mUtem-114" value=".pc_increment" style="text;html=1;align=center;verticalAlign=middle;whiteSpace=wrap;rounded=0;" parent="1" vertex="1">
          <mxGeometry x="120" y="150" width="60" height="20" as="geometry" />
        </mxCell>
        <mxCell id="gpkW7kSRFp9-6F2mUtem-115" value="" style="endArrow=none;html=1;rounded=0;" parent="1" edge="1">
          <mxGeometry width="50" height="50" relative="1" as="geometry">
            <mxPoint x="90" y="170" as="sourcePoint" />
            <mxPoint x="710" y="180" as="targetPoint" />
          </mxGeometry>
        </mxCell>
        <mxCell id="gpkW7kSRFp9-6F2mUtem-116" value="" style="endArrow=none;html=1;rounded=0;" parent="1" edge="1">
          <mxGeometry width="50" height="50" relative="1" as="geometry">
            <mxPoint x="90" y="210" as="sourcePoint" />
            <mxPoint x="710" y="220" as="targetPoint" />
          </mxGeometry>
        </mxCell>
        <mxCell id="gpkW7kSRFp9-6F2mUtem-117" value="" style="endArrow=none;html=1;rounded=0;" parent="1" edge="1">
          <mxGeometry width="50" height="50" relative="1" as="geometry">
            <mxPoint x="90" y="253" as="sourcePoint" />
            <mxPoint x="710" y="260" as="targetPoint" />
          </mxGeometry>
        </mxCell>
        <mxCell id="gpkW7kSRFp9-6F2mUtem-121" value=".illegal" style="text;html=1;align=center;verticalAlign=middle;whiteSpace=wrap;rounded=0;" parent="1" vertex="1">
          <mxGeometry x="100" y="190" width="60" height="20" as="geometry" />
        </mxCell>
        <mxCell id="gpkW7kSRFp9-6F2mUtem-122" value=".trap_cause" style="text;html=1;align=center;verticalAlign=middle;whiteSpace=wrap;rounded=0;" parent="1" vertex="1">
          <mxGeometry x="110" y="230" width="60" height="20" as="geometry" />
        </mxCell>
        <mxCell id="gpkW7kSRFp9-6F2mUtem-123" value="" style="endArrow=none;html=1;rounded=0;" parent="1" edge="1">
          <mxGeometry width="50" height="50" relative="1" as="geometry">
            <mxPoint x="90" y="290" as="sourcePoint" />
            <mxPoint x="710" y="300" as="targetPoint" />
          </mxGeometry>
        </mxCell>
        <mxCell id="gpkW7kSRFp9-6F2mUtem-124" value=".trap_value" style="text;html=1;align=center;verticalAlign=middle;whiteSpace=wrap;rounded=0;" parent="1" vertex="1">
          <mxGeometry x="110" y="270" width="60" height="20" as="geometry" />
        </mxCell>
        <mxCell id="gpkW7kSRFp9-6F2mUtem-125" value="" style="endArrow=none;html=1;rounded=0;" parent="1" edge="1">
          <mxGeometry width="50" height="50" relative="1" as="geometry">
            <mxPoint x="90" y="330" as="sourcePoint" />
            <mxPoint x="710" y="340" as="targetPoint" />
          </mxGeometry>
        </mxCell>
        <mxCell id="gpkW7kSRFp9-6F2mUtem-126" value=".common" style="text;html=1;align=center;verticalAlign=middle;whiteSpace=wrap;rounded=0;" parent="1" vertex="1">
          <mxGeometry x="110" y="310" width="60" height="20" as="geometry" />
        </mxCell>
        <mxCell id="gpkW7kSRFp9-6F2mUtem-127" value=".next_pc" style="text;html=1;align=center;verticalAlign=middle;whiteSpace=wrap;rounded=0;" parent="1" vertex="1">
          <mxGeometry x="620" y="157.90999999999997" width="60" height="12.09" as="geometry" />
        </mxCell>
        <mxCell id="gpkW7kSRFp9-6F2mUtem-128" value=".trap" style="text;html=1;align=center;verticalAlign=middle;whiteSpace=wrap;rounded=0;" parent="1" vertex="1">
          <mxGeometry x="610" y="197.90999999999997" width="60" height="12.09" as="geometry" />
        </mxCell>
        <mxCell id="gpkW7kSRFp9-6F2mUtem-129" value=".trap_cause" style="text;html=1;align=center;verticalAlign=middle;whiteSpace=wrap;rounded=0;" parent="1" vertex="1">
          <mxGeometry x="631" y="237.90999999999997" width="60" height="12.09" as="geometry" />
        </mxCell>
        <mxCell id="gpkW7kSRFp9-6F2mUtem-130" value=".trap_value" style="text;html=1;align=center;verticalAlign=middle;whiteSpace=wrap;rounded=0;" parent="1" vertex="1">
          <mxGeometry x="631" y="277.90999999999997" width="60" height="12.09" as="geometry" />
        </mxCell>
        <mxCell id="gpkW7kSRFp9-6F2mUtem-131" value="&lt;div&gt;.common&lt;/div&gt;" style="text;html=1;align=center;verticalAlign=middle;whiteSpace=wrap;rounded=0;" parent="1" vertex="1">
          <mxGeometry x="631" y="317.90999999999997" width="60" height="12.09" as="geometry" />
        </mxCell>
        <mxCell id="gpkW7kSRFp9-6F2mUtem-133" value="&lt;font style=&quot;font-size: 36px;&quot;&gt;ALU2&lt;br&gt;&quot;Shift and add&quot;&lt;/font&gt;" style="text;html=1;align=center;verticalAlign=middle;whiteSpace=wrap;rounded=0;" parent="1" vertex="1">
          <mxGeometry x="190" y="-550" width="360" height="30" as="geometry" />
        </mxCell>
        <mxCell id="gpkW7kSRFp9-6F2mUtem-135" value="&lt;font style=&quot;font-size: 36px;&quot;&gt;ALU1&lt;br&gt;&quot;Bttwise ops and shift/add setup&quot;&lt;/font&gt;" style="text;html=1;align=center;verticalAlign=middle;whiteSpace=wrap;rounded=0;" parent="1" vertex="1">
          <mxGeometry x="-590" y="-540" width="360" height="30" as="geometry" />
        </mxCell>
        <mxCell id="gpkW7kSRFp9-6F2mUtem-144" value="sign_a" style="shape=trapezoid;perimeter=trapezoidPerimeter;whiteSpace=wrap;html=1;fixedSize=1;direction=south;" parent="1" vertex="1">
          <mxGeometry x="-380" y="298.0799999999999" width="60" height="120" as="geometry" />
        </mxCell>
        <mxCell id="gpkW7kSRFp9-6F2mUtem-145" value="" style="endArrow=classic;html=1;rounded=0;" parent="1" edge="1">
          <mxGeometry width="50" height="50" relative="1" as="geometry">
            <mxPoint x="-130" y="-80" as="sourcePoint" />
            <mxPoint x="-16" y="-82" as="targetPoint" />
          </mxGeometry>
        </mxCell>
        <mxCell id="gpkW7kSRFp9-6F2mUtem-147" value="" style="endArrow=classic;html=1;rounded=0;" parent="1" edge="1">
          <mxGeometry width="50" height="50" relative="1" as="geometry">
            <mxPoint x="-100" as="sourcePoint" />
            <mxPoint x="-16" y="-2" as="targetPoint" />
          </mxGeometry>
        </mxCell>
        <mxCell id="gpkW7kSRFp9-6F2mUtem-149" value="" style="endArrow=none;html=1;rounded=0;exitX=0.414;exitY=0.962;exitDx=0;exitDy=0;exitPerimeter=0;" parent="1" edge="1">
          <mxGeometry width="50" height="50" relative="1" as="geometry">
            <mxPoint x="-1673.44" y="-337.0039999999999" as="sourcePoint" />
            <mxPoint x="-810" y="-330" as="targetPoint" />
          </mxGeometry>
        </mxCell>
        <mxCell id="gpkW7kSRFp9-6F2mUtem-150" value="" style="endArrow=none;html=1;rounded=0;" parent="1" edge="1">
          <mxGeometry width="50" height="50" relative="1" as="geometry">
            <mxPoint x="-420" y="392.0799999999999" as="sourcePoint" />
            <mxPoint x="-380" y="392.03" as="targetPoint" />
          </mxGeometry>
        </mxCell>
        <mxCell id="gpkW7kSRFp9-6F2mUtem-154" value="&lt;div&gt;0&lt;/div&gt;" style="text;html=1;align=center;verticalAlign=middle;whiteSpace=wrap;rounded=0;" parent="1" vertex="1">
          <mxGeometry x="-430" y="382.0799999999999" width="11" height="12" as="geometry" />
        </mxCell>
        <mxCell id="gpkW7kSRFp9-6F2mUtem-155" value="" style="endArrow=none;html=1;rounded=0;" parent="1" edge="1">
          <mxGeometry width="50" height="50" relative="1" as="geometry">
            <mxPoint x="-540" y="338.0799999999999" as="sourcePoint" />
            <mxPoint x="-520" y="298.0799999999999" as="targetPoint" />
          </mxGeometry>
        </mxCell>
        <mxCell id="gpkW7kSRFp9-6F2mUtem-156" value="[31]" style="text;html=1;align=center;verticalAlign=middle;whiteSpace=wrap;rounded=0;" parent="1" vertex="1">
          <mxGeometry x="-520" y="293.0799999999999" width="40" height="30" as="geometry" />
        </mxCell>
        <mxCell id="gpkW7kSRFp9-6F2mUtem-157" value="" style="triangle;whiteSpace=wrap;html=1;" parent="1" vertex="1">
          <mxGeometry x="-470" y="278.0799999999999" width="60" height="80" as="geometry" />
        </mxCell>
        <mxCell id="gpkW7kSRFp9-6F2mUtem-158" value="" style="ellipse;whiteSpace=wrap;html=1;aspect=fixed;" parent="1" vertex="1">
          <mxGeometry x="-410" y="313.0799999999999" width="10" height="10" as="geometry" />
        </mxCell>
        <mxCell id="gpkW7kSRFp9-6F2mUtem-159" value="" style="endArrow=none;html=1;rounded=0;" parent="1" edge="1">
          <mxGeometry width="50" height="50" relative="1" as="geometry">
            <mxPoint x="-400" y="318.0799999999999" as="sourcePoint" />
            <mxPoint x="-380" y="317.8800000000001" as="targetPoint" />
          </mxGeometry>
        </mxCell>
        <mxCell id="gpkW7kSRFp9-6F2mUtem-160" value="" style="endArrow=none;html=1;rounded=0;" parent="1" edge="1">
          <mxGeometry width="50" height="50" relative="1" as="geometry">
            <mxPoint x="-1620" y="-322" as="sourcePoint" />
            <mxPoint x="-1600" y="-362" as="targetPoint" />
          </mxGeometry>
        </mxCell>
        <mxCell id="gpkW7kSRFp9-6F2mUtem-161" value="&lt;div&gt;.rs1&lt;/div&gt;" style="text;html=1;align=center;verticalAlign=middle;whiteSpace=wrap;rounded=0;" parent="1" vertex="1">
          <mxGeometry x="-1590" y="-367" width="40" height="30" as="geometry" />
        </mxCell>
        <mxCell id="gpkW7kSRFp9-6F2mUtem-162" value="&lt;div&gt;insn&lt;br&gt;&lt;/div&gt;" style="text;html=1;align=center;verticalAlign=middle;whiteSpace=wrap;rounded=0;" parent="1" vertex="1">
          <mxGeometry x="-1680" y="-358.5" width="40" height="13" as="geometry" />
        </mxCell>
        <mxCell id="gpkW7kSRFp9-6F2mUtem-164" value="" style="endArrow=none;html=1;rounded=0;" parent="1" edge="1">
          <mxGeometry width="50" height="50" relative="1" as="geometry">
            <mxPoint x="-550" y="448.08000000000004" as="sourcePoint" />
            <mxPoint x="-550" y="316.0799999999999" as="targetPoint" />
          </mxGeometry>
        </mxCell>
        <mxCell id="gpkW7kSRFp9-6F2mUtem-165" value="" style="endArrow=none;html=1;rounded=0;" parent="1" edge="1">
          <mxGeometry width="50" height="50" relative="1" as="geometry">
            <mxPoint x="-550" y="450.08000000000004" as="sourcePoint" />
            <mxPoint x="-280" y="448.08000000000004" as="targetPoint" />
          </mxGeometry>
        </mxCell>
        <mxCell id="gpkW7kSRFp9-6F2mUtem-166" value="" style="endArrow=none;html=1;rounded=0;" parent="1" edge="1">
          <mxGeometry width="50" height="50" relative="1" as="geometry">
            <mxPoint x="-320" y="358.1300000000001" as="sourcePoint" />
            <mxPoint x="-280" y="358.0799999999999" as="targetPoint" />
          </mxGeometry>
        </mxCell>
        <mxCell id="gpkW7kSRFp9-6F2mUtem-167" value="" style="endArrow=none;html=1;rounded=0;" parent="1" edge="1">
          <mxGeometry width="50" height="50" relative="1" as="geometry">
            <mxPoint x="-280" y="448.08000000000004" as="sourcePoint" />
            <mxPoint x="-280" y="358.0799999999999" as="targetPoint" />
          </mxGeometry>
        </mxCell>
        <mxCell id="gpkW7kSRFp9-6F2mUtem-169" value="" style="endArrow=none;html=1;rounded=0;" parent="1" edge="1">
          <mxGeometry width="50" height="50" relative="1" as="geometry">
            <mxPoint x="-280" y="358.1300000000001" as="sourcePoint" />
            <mxPoint x="-240" y="358.0799999999999" as="targetPoint" />
          </mxGeometry>
        </mxCell>
        <mxCell id="gpkW7kSRFp9-6F2mUtem-170" value="" style="endArrow=none;html=1;rounded=0;" parent="1" edge="1">
          <mxGeometry width="50" height="50" relative="1" as="geometry">
            <mxPoint x="-270" y="378.0799999999999" as="sourcePoint" />
            <mxPoint x="-250" y="338.0799999999999" as="targetPoint" />
          </mxGeometry>
        </mxCell>
        <mxCell id="gpkW7kSRFp9-6F2mUtem-171" value="[32]" style="text;html=1;align=center;verticalAlign=middle;whiteSpace=wrap;rounded=0;" parent="1" vertex="1">
          <mxGeometry x="-320" y="328.0799999999999" width="40" height="30" as="geometry" />
        </mxCell>
        <mxCell id="gpkW7kSRFp9-6F2mUtem-172" value="[31:0]" style="text;html=1;align=center;verticalAlign=middle;whiteSpace=wrap;rounded=0;" parent="1" vertex="1">
          <mxGeometry x="-320" y="418.0799999999999" width="40" height="30" as="geometry" />
        </mxCell>
        <mxCell id="gpkW7kSRFp9-6F2mUtem-174" value="sign_b" style="shape=trapezoid;perimeter=trapezoidPerimeter;whiteSpace=wrap;html=1;fixedSize=1;direction=south;" parent="1" vertex="1">
          <mxGeometry x="-720" y="367.1600000000001" width="60" height="120" as="geometry" />
        </mxCell>
        <mxCell id="gpkW7kSRFp9-6F2mUtem-175" value="" style="endArrow=none;html=1;rounded=0;" parent="1" edge="1">
          <mxGeometry width="50" height="50" relative="1" as="geometry">
            <mxPoint x="-1060" y="387.0799999999999" as="sourcePoint" />
            <mxPoint x="-810" y="386.96000000000004" as="targetPoint" />
          </mxGeometry>
        </mxCell>
        <mxCell id="gpkW7kSRFp9-6F2mUtem-176" value="" style="endArrow=none;html=1;rounded=0;exitX=0.988;exitY=0.449;exitDx=0;exitDy=0;exitPerimeter=0;" parent="1" source="gpkW7kSRFp9-6F2mUtem-195" edge="1">
          <mxGeometry width="50" height="50" relative="1" as="geometry">
            <mxPoint x="-960" y="461.1600000000001" as="sourcePoint" />
            <mxPoint x="-720" y="461.11" as="targetPoint" />
          </mxGeometry>
        </mxCell>
        <mxCell id="gpkW7kSRFp9-6F2mUtem-178" value="" style="endArrow=none;html=1;rounded=0;" parent="1" edge="1">
          <mxGeometry width="50" height="50" relative="1" as="geometry">
            <mxPoint x="-930" y="407.1600000000001" as="sourcePoint" />
            <mxPoint x="-910" y="367.1600000000001" as="targetPoint" />
          </mxGeometry>
        </mxCell>
        <mxCell id="gpkW7kSRFp9-6F2mUtem-179" value="[32]" style="text;html=1;align=center;verticalAlign=middle;whiteSpace=wrap;rounded=0;" parent="1" vertex="1">
          <mxGeometry x="-870" y="362.1600000000001" width="40" height="30" as="geometry" />
        </mxCell>
        <mxCell id="gpkW7kSRFp9-6F2mUtem-180" value="" style="triangle;whiteSpace=wrap;html=1;" parent="1" vertex="1">
          <mxGeometry x="-810" y="347.1600000000001" width="60" height="80" as="geometry" />
        </mxCell>
        <mxCell id="gpkW7kSRFp9-6F2mUtem-181" value="" style="ellipse;whiteSpace=wrap;html=1;aspect=fixed;" parent="1" vertex="1">
          <mxGeometry x="-750" y="382.1600000000001" width="10" height="10" as="geometry" />
        </mxCell>
        <mxCell id="gpkW7kSRFp9-6F2mUtem-182" value="" style="endArrow=none;html=1;rounded=0;" parent="1" edge="1">
          <mxGeometry width="50" height="50" relative="1" as="geometry">
            <mxPoint x="-740" y="387.1600000000001" as="sourcePoint" />
            <mxPoint x="-720" y="386.96000000000004" as="targetPoint" />
          </mxGeometry>
        </mxCell>
        <mxCell id="gpkW7kSRFp9-6F2mUtem-186" value="" style="endArrow=none;html=1;rounded=0;" parent="1" edge="1">
          <mxGeometry width="50" height="50" relative="1" as="geometry">
            <mxPoint x="-900" y="517.1600000000002" as="sourcePoint" />
            <mxPoint x="-900" y="387.1600000000001" as="targetPoint" />
          </mxGeometry>
        </mxCell>
        <mxCell id="gpkW7kSRFp9-6F2mUtem-187" value="" style="endArrow=none;html=1;rounded=0;" parent="1" edge="1">
          <mxGeometry width="50" height="50" relative="1" as="geometry">
            <mxPoint x="-900" y="517.2100000000002" as="sourcePoint" />
            <mxPoint x="-620" y="517.1600000000002" as="targetPoint" />
          </mxGeometry>
        </mxCell>
        <mxCell id="gpkW7kSRFp9-6F2mUtem-188" value="" style="endArrow=none;html=1;rounded=0;" parent="1" edge="1">
          <mxGeometry width="50" height="50" relative="1" as="geometry">
            <mxPoint x="-660" y="427.21000000000004" as="sourcePoint" />
            <mxPoint x="-620" y="427.1600000000001" as="targetPoint" />
          </mxGeometry>
        </mxCell>
        <mxCell id="gpkW7kSRFp9-6F2mUtem-189" value="" style="endArrow=none;html=1;rounded=0;" parent="1" edge="1">
          <mxGeometry width="50" height="50" relative="1" as="geometry">
            <mxPoint x="-620" y="517.1600000000002" as="sourcePoint" />
            <mxPoint x="-620" y="427.1600000000001" as="targetPoint" />
          </mxGeometry>
        </mxCell>
        <mxCell id="gpkW7kSRFp9-6F2mUtem-190" value="" style="endArrow=none;html=1;rounded=0;" parent="1" edge="1">
          <mxGeometry width="50" height="50" relative="1" as="geometry">
            <mxPoint x="-620" y="427.21000000000004" as="sourcePoint" />
            <mxPoint x="-590" y="427.08000000000004" as="targetPoint" />
          </mxGeometry>
        </mxCell>
        <mxCell id="gpkW7kSRFp9-6F2mUtem-191" value="" style="endArrow=none;html=1;rounded=0;" parent="1" edge="1">
          <mxGeometry width="50" height="50" relative="1" as="geometry">
            <mxPoint x="-610" y="447.1600000000001" as="sourcePoint" />
            <mxPoint x="-590" y="407.1600000000001" as="targetPoint" />
          </mxGeometry>
        </mxCell>
        <mxCell id="gpkW7kSRFp9-6F2mUtem-192" value="[32]" style="text;html=1;align=center;verticalAlign=middle;whiteSpace=wrap;rounded=0;" parent="1" vertex="1">
          <mxGeometry x="-660" y="397.1600000000001" width="40" height="30" as="geometry" />
        </mxCell>
        <mxCell id="gpkW7kSRFp9-6F2mUtem-193" value="[31:0]" style="text;html=1;align=center;verticalAlign=middle;whiteSpace=wrap;rounded=0;" parent="1" vertex="1">
          <mxGeometry x="-660" y="487.1600000000001" width="40" height="30" as="geometry" />
        </mxCell>
        <mxCell id="gpkW7kSRFp9-6F2mUtem-194" value="[31:0]" style="text;html=1;align=center;verticalAlign=middle;whiteSpace=wrap;rounded=0;" parent="1" vertex="1">
          <mxGeometry x="-870" y="487.1600000000001" width="40" height="30" as="geometry" />
        </mxCell>
        <mxCell id="gpkW7kSRFp9-6F2mUtem-195" value="!= &#39;0" style="ellipse;whiteSpace=wrap;html=1;aspect=fixed;" parent="1" vertex="1">
          <mxGeometry x="-1045" y="424.2500000000001" width="80" height="80" as="geometry" />
        </mxCell>
        <mxCell id="gpkW7kSRFp9-6F2mUtem-196" value="" style="endArrow=none;html=1;rounded=0;" parent="1" edge="1">
          <mxGeometry width="50" height="50" relative="1" as="geometry">
            <mxPoint x="-1410" y="458.08000000000004" as="sourcePoint" />
            <mxPoint x="-1042" y="458.1700000000001" as="targetPoint" />
          </mxGeometry>
        </mxCell>
        <mxCell id="gpkW7kSRFp9-6F2mUtem-197" value="" style="endArrow=none;html=1;rounded=0;" parent="1" edge="1">
          <mxGeometry width="50" height="50" relative="1" as="geometry">
            <mxPoint x="-1090" y="460.08000000000004" as="sourcePoint" />
            <mxPoint x="-1090" y="290.0799999999999" as="targetPoint" />
          </mxGeometry>
        </mxCell>
        <mxCell id="gpkW7kSRFp9-6F2mUtem-198" value="out = -in" style="ellipse;whiteSpace=wrap;html=1;aspect=fixed;" parent="1" vertex="1">
          <mxGeometry x="-1260" y="476.08000000000004" width="80" height="80" as="geometry" />
        </mxCell>
        <mxCell id="gpkW7kSRFp9-6F2mUtem-199" value="b_neg" style="shape=trapezoid;perimeter=trapezoidPerimeter;whiteSpace=wrap;html=1;fixedSize=1;direction=south;" parent="1" vertex="1">
          <mxGeometry x="-1140" y="490.0799999999999" width="60" height="120" as="geometry" />
        </mxCell>
        <mxCell id="gpkW7kSRFp9-6F2mUtem-200" value="" style="endArrow=none;html=1;rounded=0;exitX=1;exitY=0.5;exitDx=0;exitDy=0;exitPerimeter=0;" parent="1" source="gpkW7kSRFp9-6F2mUtem-198" edge="1">
          <mxGeometry width="50" height="50" relative="1" as="geometry">
            <mxPoint x="-1178" y="515.9100000000001" as="sourcePoint" />
            <mxPoint x="-1140" y="516.0600000000001" as="targetPoint" />
          </mxGeometry>
        </mxCell>
        <mxCell id="gpkW7kSRFp9-6F2mUtem-202" value="" style="endArrow=none;html=1;rounded=0;" parent="1" edge="1">
          <mxGeometry width="50" height="50" relative="1" as="geometry">
            <mxPoint x="-1290" y="585.08" as="sourcePoint" />
            <mxPoint x="-1140" y="584.9100000000001" as="targetPoint" />
          </mxGeometry>
        </mxCell>
        <mxCell id="gpkW7kSRFp9-6F2mUtem-204" value="" style="endArrow=none;html=1;rounded=0;" parent="1" edge="1">
          <mxGeometry width="50" height="50" relative="1" as="geometry">
            <mxPoint x="-1290" y="586.1700000000001" as="sourcePoint" />
            <mxPoint x="-1290" y="520.08" as="targetPoint" />
          </mxGeometry>
        </mxCell>
        <mxCell id="gpkW7kSRFp9-6F2mUtem-205" value="" style="endArrow=none;html=1;rounded=0;exitX=0.5;exitY=0;exitDx=0;exitDy=0;" parent="1" source="gpkW7kSRFp9-6F2mUtem-216" edge="1">
          <mxGeometry width="50" height="50" relative="1" as="geometry">
            <mxPoint x="-1410" y="520.08" as="sourcePoint" />
            <mxPoint x="-1330" y="518.1700000000001" as="targetPoint" />
          </mxGeometry>
        </mxCell>
        <mxCell id="gpkW7kSRFp9-6F2mUtem-206" value="" style="endArrow=none;html=1;rounded=0;" parent="1" edge="1">
          <mxGeometry width="50" height="50" relative="1" as="geometry">
            <mxPoint x="-1330" y="608.1700000000001" as="sourcePoint" />
            <mxPoint x="-1330" y="518.1700000000001" as="targetPoint" />
          </mxGeometry>
        </mxCell>
        <mxCell id="gpkW7kSRFp9-6F2mUtem-207" value="" style="endArrow=none;html=1;rounded=0;entryX=0.005;entryY=0.538;entryDx=0;entryDy=0;entryPerimeter=0;" parent="1" target="gpkW7kSRFp9-6F2mUtem-198" edge="1">
          <mxGeometry width="50" height="50" relative="1" as="geometry">
            <mxPoint x="-1330" y="518.22" as="sourcePoint" />
            <mxPoint x="-1290" y="518.1700000000001" as="targetPoint" />
          </mxGeometry>
        </mxCell>
        <mxCell id="gpkW7kSRFp9-6F2mUtem-208" value="" style="endArrow=none;html=1;rounded=0;" parent="1" edge="1">
          <mxGeometry width="50" height="50" relative="1" as="geometry">
            <mxPoint x="-1320" y="538.1700000000001" as="sourcePoint" />
            <mxPoint x="-1300" y="498.16999999999996" as="targetPoint" />
          </mxGeometry>
        </mxCell>
        <mxCell id="gpkW7kSRFp9-6F2mUtem-209" value="[32]" style="text;html=1;align=center;verticalAlign=middle;whiteSpace=wrap;rounded=0;" parent="1" vertex="1">
          <mxGeometry x="-1370" y="494.1299999999999" width="40" height="21.91" as="geometry" />
        </mxCell>
        <mxCell id="gpkW7kSRFp9-6F2mUtem-210" value="[31:0]" style="text;html=1;align=center;verticalAlign=middle;whiteSpace=wrap;rounded=0;" parent="1" vertex="1">
          <mxGeometry x="-1370" y="578.1700000000001" width="40" height="30" as="geometry" />
        </mxCell>
        <mxCell id="gpkW7kSRFp9-6F2mUtem-212" value="" style="endArrow=none;html=1;rounded=0;" parent="1" edge="1">
          <mxGeometry width="50" height="50" relative="1" as="geometry">
            <mxPoint x="-1410" y="610.08" as="sourcePoint" />
            <mxPoint x="-1330" y="608.1700000000001" as="targetPoint" />
          </mxGeometry>
        </mxCell>
        <mxCell id="gpkW7kSRFp9-6F2mUtem-213" value="" style="endArrow=none;html=1;rounded=0;" parent="1" edge="1">
          <mxGeometry width="50" height="50" relative="1" as="geometry">
            <mxPoint x="-1390" y="540.08" as="sourcePoint" />
            <mxPoint x="-1370" y="500.0799999999999" as="targetPoint" />
          </mxGeometry>
        </mxCell>
        <mxCell id="gpkW7kSRFp9-6F2mUtem-215" value="" style="endArrow=none;html=1;rounded=0;" parent="1" edge="1">
          <mxGeometry width="50" height="50" relative="1" as="geometry">
            <mxPoint x="-1410" y="608.1700000000001" as="sourcePoint" />
            <mxPoint x="-1410" y="460.08000000000004" as="targetPoint" />
          </mxGeometry>
        </mxCell>
        <mxCell id="gpkW7kSRFp9-6F2mUtem-216" value="&lt;div&gt;b&lt;/div&gt;" style="shape=trapezoid;perimeter=trapezoidPerimeter;whiteSpace=wrap;html=1;fixedSize=1;direction=south;" parent="1" vertex="1">
          <mxGeometry x="-1500" y="458.16999999999996" width="60" height="120" as="geometry" />
        </mxCell>
        <mxCell id="gpkW7kSRFp9-6F2mUtem-218" value="&amp;amp;" style="ellipse;whiteSpace=wrap;html=1;aspect=fixed;" parent="1" vertex="1">
          <mxGeometry x="-600" y="-202.92000000000002" width="80" height="80" as="geometry" />
        </mxCell>
        <mxCell id="gpkW7kSRFp9-6F2mUtem-219" value="|" style="ellipse;whiteSpace=wrap;html=1;aspect=fixed;" parent="1" vertex="1">
          <mxGeometry x="-600" y="-91.92000000000002" width="80" height="80" as="geometry" />
        </mxCell>
        <mxCell id="gpkW7kSRFp9-6F2mUtem-220" value="^" style="ellipse;whiteSpace=wrap;html=1;aspect=fixed;" parent="1" vertex="1">
          <mxGeometry x="-600" y="23.079999999999984" width="80" height="80" as="geometry" />
        </mxCell>
        <mxCell id="gpkW7kSRFp9-6F2mUtem-221" value="" style="endArrow=none;html=1;rounded=0;" parent="1" edge="1">
          <mxGeometry width="50" height="50" relative="1" as="geometry">
            <mxPoint x="-672" y="288.0799999999999" as="sourcePoint" />
            <mxPoint x="-672" y="-141.92000000000002" as="targetPoint" />
          </mxGeometry>
        </mxCell>
        <mxCell id="gpkW7kSRFp9-6F2mUtem-224" value="" style="endArrow=none;html=1;rounded=0;entryX=0.047;entryY=0.727;entryDx=0;entryDy=0;entryPerimeter=0;" parent="1" target="gpkW7kSRFp9-6F2mUtem-219" edge="1">
          <mxGeometry width="50" height="50" relative="1" as="geometry">
            <mxPoint x="-672" y="-32.19999999999999" as="sourcePoint" />
            <mxPoint x="-600" y="-31.920000000000016" as="targetPoint" />
          </mxGeometry>
        </mxCell>
        <mxCell id="gpkW7kSRFp9-6F2mUtem-227" value="" style="endArrow=none;html=1;rounded=0;entryX=0.047;entryY=0.727;entryDx=0;entryDy=0;entryPerimeter=0;" parent="1" edge="1">
          <mxGeometry width="50" height="50" relative="1" as="geometry">
            <mxPoint x="-670" y="85.07999999999998" as="sourcePoint" />
            <mxPoint x="-590" y="83.07999999999998" as="targetPoint" />
          </mxGeometry>
        </mxCell>
        <mxCell id="gpkW7kSRFp9-6F2mUtem-228" value="" style="endArrow=none;html=1;rounded=0;entryX=0.047;entryY=0.727;entryDx=0;entryDy=0;entryPerimeter=0;" parent="1" edge="1">
          <mxGeometry width="50" height="50" relative="1" as="geometry">
            <mxPoint x="-670" y="-141.92000000000002" as="sourcePoint" />
            <mxPoint x="-590" y="-142.78000000000003" as="targetPoint" />
          </mxGeometry>
        </mxCell>
        <mxCell id="gpkW7kSRFp9-6F2mUtem-229" value="" style="shape=trapezoid;perimeter=trapezoidPerimeter;whiteSpace=wrap;html=1;fixedSize=1;direction=south;" parent="1" vertex="1">
          <mxGeometry x="-760" y="80.07999999999998" width="60" height="120" as="geometry" />
        </mxCell>
        <mxCell id="gpkW7kSRFp9-6F2mUtem-230" value="" style="endArrow=none;html=1;rounded=0;entryX=0.919;entryY=1.051;entryDx=0;entryDy=0;entryPerimeter=0;" parent="1" target="gpkW7kSRFp9-6F2mUtem-231" edge="1">
          <mxGeometry width="50" height="50" relative="1" as="geometry">
            <mxPoint x="-700" y="141.07999999999998" as="sourcePoint" />
            <mxPoint x="-500" y="140.07999999999998" as="targetPoint" />
          </mxGeometry>
        </mxCell>
        <mxCell id="gpkW7kSRFp9-6F2mUtem-231" value="shift_lo" style="shape=trapezoid;perimeter=trapezoidPerimeter;whiteSpace=wrap;html=1;fixedSize=1;direction=south;" parent="1" vertex="1">
          <mxGeometry x="-440" y="-189.92000000000002" width="60" height="360" as="geometry" />
        </mxCell>
        <mxCell id="gpkW7kSRFp9-6F2mUtem-232" value="" style="endArrow=none;html=1;rounded=0;entryX=0.919;entryY=1.051;entryDx=0;entryDy=0;entryPerimeter=0;" parent="1" edge="1">
          <mxGeometry width="50" height="50" relative="1" as="geometry">
            <mxPoint x="-520" y="62.879999999999995" as="sourcePoint" />
            <mxPoint x="-443" y="62.879999999999995" as="targetPoint" />
          </mxGeometry>
        </mxCell>
        <mxCell id="gpkW7kSRFp9-6F2mUtem-233" value="" style="endArrow=none;html=1;rounded=0;entryX=0.919;entryY=1.051;entryDx=0;entryDy=0;entryPerimeter=0;" parent="1" edge="1">
          <mxGeometry width="50" height="50" relative="1" as="geometry">
            <mxPoint x="-517" y="-54.920000000000016" as="sourcePoint" />
            <mxPoint x="-440" y="-54.920000000000016" as="targetPoint" />
          </mxGeometry>
        </mxCell>
        <mxCell id="gpkW7kSRFp9-6F2mUtem-234" value="" style="endArrow=none;html=1;rounded=0;entryX=0.919;entryY=1.051;entryDx=0;entryDy=0;entryPerimeter=0;" parent="1" edge="1">
          <mxGeometry width="50" height="50" relative="1" as="geometry">
            <mxPoint x="-520" y="-163.12" as="sourcePoint" />
            <mxPoint x="-443" y="-163.12" as="targetPoint" />
          </mxGeometry>
        </mxCell>
        <mxCell id="gpkW7kSRFp9-6F2mUtem-235" value="" style="endArrow=none;html=1;rounded=0;entryX=0.75;entryY=1;entryDx=0;entryDy=0;" parent="1" edge="1">
          <mxGeometry width="50" height="50" relative="1" as="geometry">
            <mxPoint x="-790" y="104.90999999999997" as="sourcePoint" />
            <mxPoint x="-760" y="104.90999999999997" as="targetPoint" />
          </mxGeometry>
        </mxCell>
        <mxCell id="gpkW7kSRFp9-6F2mUtem-236" value="&lt;div&gt;0&lt;/div&gt;" style="text;html=1;align=center;verticalAlign=middle;whiteSpace=wrap;rounded=0;" parent="1" vertex="1">
          <mxGeometry x="-800" y="91.07999999999998" width="11" height="12" as="geometry" />
        </mxCell>
        <mxCell id="gpkW7kSRFp9-6F2mUtem-238" value="shift_hi" style="shape=trapezoid;perimeter=trapezoidPerimeter;whiteSpace=wrap;html=1;fixedSize=1;direction=south;" parent="1" vertex="1">
          <mxGeometry x="-440" y="-359.92" width="60" height="120" as="geometry" />
        </mxCell>
        <mxCell id="gpkW7kSRFp9-6F2mUtem-239" value="&lt;div&gt;Sign-extend&lt;/div&gt;&lt;div&gt;1b to 32b&lt;br&gt;&lt;/div&gt;" style="ellipse;whiteSpace=wrap;html=1;aspect=fixed;" parent="1" vertex="1">
          <mxGeometry x="-600" y="-309.91999999999996" width="80" height="80" as="geometry" />
        </mxCell>
        <mxCell id="gpkW7kSRFp9-6F2mUtem-242" value="" style="endArrow=none;html=1;rounded=0;entryX=0.75;entryY=1;entryDx=0;entryDy=0;exitX=1;exitY=0.5;exitDx=0;exitDy=0;" parent="1" source="gpkW7kSRFp9-6F2mUtem-239" edge="1">
          <mxGeometry width="50" height="50" relative="1" as="geometry">
            <mxPoint x="-470" y="-271.92" as="sourcePoint" />
            <mxPoint x="-440" y="-272.21" as="targetPoint" />
          </mxGeometry>
        </mxCell>
        <mxCell id="gpkW7kSRFp9-6F2mUtem-243" value="" style="shape=or;whiteSpace=wrap;html=1;" parent="1" vertex="1">
          <mxGeometry x="-680" y="-309.92" width="60" height="80" as="geometry" />
        </mxCell>
        <mxCell id="gpkW7kSRFp9-6F2mUtem-246" value="" style="endArrow=none;html=1;rounded=0;entryX=0.75;entryY=1;entryDx=0;entryDy=0;" parent="1" edge="1">
          <mxGeometry width="50" height="50" relative="1" as="geometry">
            <mxPoint x="-620" y="-272.1" as="sourcePoint" />
            <mxPoint x="-600" y="-272.30000000000007" as="targetPoint" />
          </mxGeometry>
        </mxCell>
        <mxCell id="gpkW7kSRFp9-6F2mUtem-247" value="" style="endArrow=none;html=1;rounded=0;entryX=0.232;entryY=1;entryDx=0;entryDy=0;entryPerimeter=0;" parent="1" target="gpkW7kSRFp9-6F2mUtem-238" edge="1">
          <mxGeometry width="50" height="50" relative="1" as="geometry">
            <mxPoint x="-810" y="-329.92" as="sourcePoint" />
            <mxPoint x="-444.5" y="-329.92" as="targetPoint" />
          </mxGeometry>
        </mxCell>
        <mxCell id="gpkW7kSRFp9-6F2mUtem-248" value="" style="endArrow=none;html=1;rounded=0;entryX=1;entryY=1;entryDx=0;entryDy=0;" parent="1" target="gpkW7kSRFp9-6F2mUtem-252" edge="1">
          <mxGeometry width="50" height="50" relative="1" as="geometry">
            <mxPoint x="-740" y="-289.92" as="sourcePoint" />
            <mxPoint x="-660" y="-289.92" as="targetPoint" />
          </mxGeometry>
        </mxCell>
        <mxCell id="gpkW7kSRFp9-6F2mUtem-250" value="" style="endArrow=none;html=1;rounded=0;" parent="1" edge="1">
          <mxGeometry width="50" height="50" relative="1" as="geometry">
            <mxPoint x="-740" y="-270.87" as="sourcePoint" />
            <mxPoint x="-720" y="-310.87" as="targetPoint" />
          </mxGeometry>
        </mxCell>
        <mxCell id="gpkW7kSRFp9-6F2mUtem-251" value="" style="endArrow=none;html=1;rounded=0;" parent="1" edge="1">
          <mxGeometry width="50" height="50" relative="1" as="geometry">
            <mxPoint x="-740" y="-288.96000000000004" as="sourcePoint" />
            <mxPoint x="-740" y="-328.96000000000004" as="targetPoint" />
          </mxGeometry>
        </mxCell>
        <mxCell id="gpkW7kSRFp9-6F2mUtem-252" value="[31]" style="text;html=1;align=center;verticalAlign=middle;whiteSpace=wrap;rounded=0;" parent="1" vertex="1">
          <mxGeometry x="-720" y="-310.87000000000006" width="40" height="21.91" as="geometry" />
        </mxCell>
        <mxCell id="gpkW7kSRFp9-6F2mUtem-253" value="" style="endArrow=none;html=1;rounded=0;" parent="1" edge="1">
          <mxGeometry width="50" height="50" relative="1" as="geometry">
            <mxPoint x="-940" y="460.08000000000004" as="sourcePoint" />
            <mxPoint x="-940" y="270.0799999999999" as="targetPoint" />
          </mxGeometry>
        </mxCell>
        <mxCell id="gpkW7kSRFp9-6F2mUtem-255" value="shift_left" style="shape=or;whiteSpace=wrap;html=1;" parent="1" vertex="1">
          <mxGeometry x="-920" y="204.07999999999998" width="60" height="80" as="geometry" />
        </mxCell>
        <mxCell id="gpkW7kSRFp9-6F2mUtem-256" value="" style="endArrow=none;html=1;rounded=0;" parent="1" edge="1">
          <mxGeometry width="50" height="50" relative="1" as="geometry">
            <mxPoint x="-940" y="268.23" as="sourcePoint" />
            <mxPoint x="-920" y="267.99" as="targetPoint" />
          </mxGeometry>
        </mxCell>
        <mxCell id="gpkW7kSRFp9-6F2mUtem-257" value="" style="endArrow=none;html=1;rounded=0;" parent="1" edge="1">
          <mxGeometry width="50" height="50" relative="1" as="geometry">
            <mxPoint x="-860" y="246.07999999999993" as="sourcePoint" />
            <mxPoint x="-730" y="248.07999999999993" as="targetPoint" />
          </mxGeometry>
        </mxCell>
        <mxCell id="gpkW7kSRFp9-6F2mUtem-258" value="" style="endArrow=none;html=1;rounded=0;" parent="1" edge="1">
          <mxGeometry width="50" height="50" relative="1" as="geometry">
            <mxPoint x="-730" y="250.07999999999993" as="sourcePoint" />
            <mxPoint x="-730" y="187.0800000000001" as="targetPoint" />
          </mxGeometry>
        </mxCell>
        <mxCell id="gpkW7kSRFp9-6F2mUtem-259" value="" style="endArrow=none;html=1;rounded=0;" parent="1" edge="1">
          <mxGeometry width="50" height="50" relative="1" as="geometry">
            <mxPoint x="-1090" y="290.2800000000001" as="sourcePoint" />
            <mxPoint x="-670" y="290.0799999999999" as="targetPoint" />
          </mxGeometry>
        </mxCell>
        <mxCell id="gpkW7kSRFp9-6F2mUtem-260" value="" style="endArrow=none;html=1;rounded=0;entryX=0.047;entryY=0.727;entryDx=0;entryDy=0;entryPerimeter=0;" parent="1" edge="1">
          <mxGeometry width="50" height="50" relative="1" as="geometry">
            <mxPoint x="-810" y="-184.92000000000002" as="sourcePoint" />
            <mxPoint x="-590" y="-185.35000000000002" as="targetPoint" />
          </mxGeometry>
        </mxCell>
        <mxCell id="gpkW7kSRFp9-6F2mUtem-262" value="" style="endArrow=none;html=1;rounded=0;entryX=0.047;entryY=0.727;entryDx=0;entryDy=0;entryPerimeter=0;" parent="1" edge="1">
          <mxGeometry width="50" height="50" relative="1" as="geometry">
            <mxPoint x="-810" y="-74.49000000000001" as="sourcePoint" />
            <mxPoint x="-590" y="-74.92000000000002" as="targetPoint" />
          </mxGeometry>
        </mxCell>
        <mxCell id="gpkW7kSRFp9-6F2mUtem-263" value="" style="endArrow=none;html=1;rounded=0;entryX=0.047;entryY=0.727;entryDx=0;entryDy=0;entryPerimeter=0;" parent="1" edge="1">
          <mxGeometry width="50" height="50" relative="1" as="geometry">
            <mxPoint x="-810" y="40.50999999999999" as="sourcePoint" />
            <mxPoint x="-590" y="40.079999999999984" as="targetPoint" />
          </mxGeometry>
        </mxCell>
        <mxCell id="gpkW7kSRFp9-6F2mUtem-265" value="" style="endArrow=none;html=1;rounded=0;" parent="1" edge="1">
          <mxGeometry width="50" height="50" relative="1" as="geometry">
            <mxPoint x="-810" y="320.0799999999999" as="sourcePoint" />
            <mxPoint x="-810" y="-329.92" as="targetPoint" />
          </mxGeometry>
        </mxCell>
        <mxCell id="gpkW7kSRFp9-6F2mUtem-266" value="" style="endArrow=none;html=1;rounded=0;entryX=0.75;entryY=1;entryDx=0;entryDy=0;" parent="1" edge="1">
          <mxGeometry width="50" height="50" relative="1" as="geometry">
            <mxPoint x="-810" y="180.37" as="sourcePoint" />
            <mxPoint x="-759" y="180.07999999999998" as="targetPoint" />
          </mxGeometry>
        </mxCell>
        <mxCell id="gpkW7kSRFp9-6F2mUtem-268" value="" style="endArrow=none;html=1;rounded=0;" parent="1" edge="1">
          <mxGeometry width="50" height="50" relative="1" as="geometry">
            <mxPoint x="-840" y="250.07999999999993" as="sourcePoint" />
            <mxPoint x="-840" y="-209.92000000000002" as="targetPoint" />
          </mxGeometry>
        </mxCell>
        <mxCell id="gpkW7kSRFp9-6F2mUtem-269" value="" style="endArrow=none;html=1;rounded=0;" parent="1" edge="1">
          <mxGeometry width="50" height="50" relative="1" as="geometry">
            <mxPoint x="-840" y="-209.92000000000002" as="sourcePoint" />
            <mxPoint x="-410" y="-209.92000000000002" as="targetPoint" />
          </mxGeometry>
        </mxCell>
        <mxCell id="gpkW7kSRFp9-6F2mUtem-270" value="" style="endArrow=none;html=1;rounded=0;" parent="1" edge="1">
          <mxGeometry width="50" height="50" relative="1" as="geometry">
            <mxPoint x="-410.28999999999996" y="-209.92000000000002" as="sourcePoint" />
            <mxPoint x="-410.28999999999996" y="-249.92000000000002" as="targetPoint" />
          </mxGeometry>
        </mxCell>
        <mxCell id="gpkW7kSRFp9-6F2mUtem-272" value="" style="endArrow=none;html=1;rounded=0;" parent="1" edge="1">
          <mxGeometry width="50" height="50" relative="1" as="geometry">
            <mxPoint x="-810" y="319.94000000000005" as="sourcePoint" />
            <mxPoint x="-470" y="318.0799999999999" as="targetPoint" />
          </mxGeometry>
        </mxCell>
        <mxCell id="gpkW7kSRFp9-6F2mUtem-274" value="" style="endArrow=none;html=1;rounded=0;" parent="1" edge="1">
          <mxGeometry width="50" height="50" relative="1" as="geometry">
            <mxPoint x="-1060" y="550.08" as="sourcePoint" />
            <mxPoint x="-1060" y="387.1600000000001" as="targetPoint" />
          </mxGeometry>
        </mxCell>
        <mxCell id="gpkW7kSRFp9-6F2mUtem-275" value="" style="endArrow=none;html=1;rounded=0;" parent="1" edge="1">
          <mxGeometry width="50" height="50" relative="1" as="geometry">
            <mxPoint x="-1080" y="547.8800000000002" as="sourcePoint" />
            <mxPoint x="-570" y="550.08" as="targetPoint" />
          </mxGeometry>
        </mxCell>
        <mxCell id="gpkW7kSRFp9-6F2mUtem-276" value="adder_a" style="shape=trapezoid;perimeter=trapezoidPerimeter;whiteSpace=wrap;html=1;fixedSize=1;direction=south;" parent="1" vertex="1">
          <mxGeometry x="-200" y="356.16999999999996" width="60" height="120" as="geometry" />
        </mxCell>
        <mxCell id="gpkW7kSRFp9-6F2mUtem-283" value="" style="endArrow=none;html=1;rounded=0;" parent="1" edge="1">
          <mxGeometry width="50" height="50" relative="1" as="geometry">
            <mxPoint x="-320" y="488.22000000000014" as="sourcePoint" />
            <mxPoint x="-280" y="488.1700000000001" as="targetPoint" />
          </mxGeometry>
        </mxCell>
        <mxCell id="gpkW7kSRFp9-6F2mUtem-284" value="" style="endArrow=none;html=1;rounded=0;" parent="1" edge="1">
          <mxGeometry width="50" height="50" relative="1" as="geometry">
            <mxPoint x="-280" y="578.1700000000001" as="sourcePoint" />
            <mxPoint x="-280" y="488.1700000000001" as="targetPoint" />
          </mxGeometry>
        </mxCell>
        <mxCell id="gpkW7kSRFp9-6F2mUtem-285" value="" style="endArrow=none;html=1;rounded=0;" parent="1" edge="1">
          <mxGeometry width="50" height="50" relative="1" as="geometry">
            <mxPoint x="-280" y="488.22000000000014" as="sourcePoint" />
            <mxPoint x="-240" y="488.1700000000001" as="targetPoint" />
          </mxGeometry>
        </mxCell>
        <mxCell id="gpkW7kSRFp9-6F2mUtem-286" value="" style="endArrow=none;html=1;rounded=0;" parent="1" edge="1">
          <mxGeometry width="50" height="50" relative="1" as="geometry">
            <mxPoint x="-270" y="508.1700000000001" as="sourcePoint" />
            <mxPoint x="-250" y="468.1700000000001" as="targetPoint" />
          </mxGeometry>
        </mxCell>
        <mxCell id="gpkW7kSRFp9-6F2mUtem-287" value="[32]" style="text;html=1;align=center;verticalAlign=middle;whiteSpace=wrap;rounded=0;" parent="1" vertex="1">
          <mxGeometry x="-321" y="466.26" width="40" height="21.91" as="geometry" />
        </mxCell>
        <mxCell id="gpkW7kSRFp9-6F2mUtem-288" value="[31:0]" style="text;html=1;align=center;verticalAlign=middle;whiteSpace=wrap;rounded=0;" parent="1" vertex="1">
          <mxGeometry x="-320" y="548.1700000000001" width="40" height="30" as="geometry" />
        </mxCell>
        <mxCell id="gpkW7kSRFp9-6F2mUtem-289" value="&lt;div&gt;0&lt;/div&gt;" style="text;html=1;align=center;verticalAlign=middle;whiteSpace=wrap;rounded=0;" parent="1" vertex="1">
          <mxGeometry x="-331" y="476.1700000000001" width="11" height="12" as="geometry" />
        </mxCell>
        <mxCell id="gpkW7kSRFp9-6F2mUtem-290" value="" style="endArrow=none;html=1;rounded=0;" parent="1" edge="1">
          <mxGeometry width="50" height="50" relative="1" as="geometry">
            <mxPoint x="-240" y="390.0799999999999" as="sourcePoint" />
            <mxPoint x="-240" y="360.0799999999999" as="targetPoint" />
          </mxGeometry>
        </mxCell>
        <mxCell id="gpkW7kSRFp9-6F2mUtem-291" value="" style="endArrow=none;html=1;rounded=0;" parent="1" edge="1">
          <mxGeometry width="50" height="50" relative="1" as="geometry">
            <mxPoint x="-240" y="487.15999999999997" as="sourcePoint" />
            <mxPoint x="-240" y="440.08000000000004" as="targetPoint" />
          </mxGeometry>
        </mxCell>
        <mxCell id="gpkW7kSRFp9-6F2mUtem-292" value="" style="endArrow=none;html=1;rounded=0;" parent="1" edge="1">
          <mxGeometry width="50" height="50" relative="1" as="geometry">
            <mxPoint x="-240" y="390.1300000000001" as="sourcePoint" />
            <mxPoint x="-200" y="390.0799999999999" as="targetPoint" />
          </mxGeometry>
        </mxCell>
        <mxCell id="gpkW7kSRFp9-6F2mUtem-293" value="" style="endArrow=none;html=1;rounded=0;" parent="1" edge="1">
          <mxGeometry width="50" height="50" relative="1" as="geometry">
            <mxPoint x="-240" y="439.93000000000006" as="sourcePoint" />
            <mxPoint x="-200" y="439.88" as="targetPoint" />
          </mxGeometry>
        </mxCell>
        <mxCell id="gpkW7kSRFp9-6F2mUtem-294" value="shift_count" style="shape=trapezoid;perimeter=trapezoidPerimeter;whiteSpace=wrap;html=1;fixedSize=1;direction=south;" parent="1" vertex="1">
          <mxGeometry x="-260" y="24.899999999999977" width="70" height="120" as="geometry" />
        </mxCell>
        <mxCell id="gpkW7kSRFp9-6F2mUtem-295" value="" style="endArrow=none;html=1;rounded=0;" parent="1" edge="1">
          <mxGeometry width="50" height="50" relative="1" as="geometry">
            <mxPoint x="-410.68999999999994" y="200.07999999999998" as="sourcePoint" />
            <mxPoint x="-410.68999999999994" y="160.07999999999998" as="targetPoint" />
          </mxGeometry>
        </mxCell>
        <mxCell id="gpkW7kSRFp9-6F2mUtem-296" value="" style="endArrow=none;html=1;rounded=0;entryX=0;entryY=0.5;entryDx=0;entryDy=0;" parent="1" target="gpkW7kSRFp9-6F2mUtem-297" edge="1">
          <mxGeometry width="50" height="50" relative="1" as="geometry">
            <mxPoint x="-1590" y="200.07999999999998" as="sourcePoint" />
            <mxPoint x="-340" y="204.07999999999998" as="targetPoint" />
          </mxGeometry>
        </mxCell>
        <mxCell id="gpkW7kSRFp9-6F2mUtem-297" value="== PASS" style="ellipse;whiteSpace=wrap;html=1;aspect=fixed;" parent="1" vertex="1">
          <mxGeometry x="-340" y="160.07999999999998" width="80" height="80" as="geometry" />
        </mxCell>
        <mxCell id="gpkW7kSRFp9-6F2mUtem-298" value="" style="endArrow=none;html=1;rounded=0;exitX=1;exitY=0.5;exitDx=0;exitDy=0;" parent="1" source="gpkW7kSRFp9-6F2mUtem-297" edge="1">
          <mxGeometry width="50" height="50" relative="1" as="geometry">
            <mxPoint x="-290" y="203.46999999999997" as="sourcePoint" />
            <mxPoint x="-220" y="200" as="targetPoint" />
          </mxGeometry>
        </mxCell>
        <mxCell id="gpkW7kSRFp9-6F2mUtem-299" value="" style="endArrow=none;html=1;rounded=0;entryX=0.884;entryY=0.433;entryDx=0;entryDy=0;entryPerimeter=0;" parent="1" edge="1">
          <mxGeometry width="50" height="50" relative="1" as="geometry">
            <mxPoint x="-220" y="201.89999999999998" as="sourcePoint" />
            <mxPoint x="-219.99999999999994" y="134.43999999999994" as="targetPoint" />
          </mxGeometry>
        </mxCell>
        <mxCell id="gpkW7kSRFp9-6F2mUtem-300" value="" style="endArrow=none;html=1;rounded=0;" parent="1" edge="1">
          <mxGeometry width="50" height="50" relative="1" as="geometry">
            <mxPoint x="-300" y="121.89999999999998" as="sourcePoint" />
            <mxPoint x="-260" y="121.89999999999998" as="targetPoint" />
          </mxGeometry>
        </mxCell>
        <mxCell id="gpkW7kSRFp9-6F2mUtem-301" value="0" style="text;html=1;align=center;verticalAlign=middle;whiteSpace=wrap;rounded=0;" parent="1" vertex="1">
          <mxGeometry x="-306.5" y="110" width="11" height="12" as="geometry" />
        </mxCell>
        <mxCell id="gpkW7kSRFp9-6F2mUtem-302" value="" style="endArrow=none;html=1;rounded=0;entryX=0.195;entryY=1.001;entryDx=0;entryDy=0;entryPerimeter=0;" parent="1" target="gpkW7kSRFp9-6F2mUtem-294" edge="1">
          <mxGeometry width="50" height="50" relative="1" as="geometry">
            <mxPoint x="-360.41999999999996" y="45.98000000000002" as="sourcePoint" />
            <mxPoint x="-229.9999999999995" y="44.180000000000064" as="targetPoint" />
          </mxGeometry>
        </mxCell>
        <mxCell id="gpkW7kSRFp9-6F2mUtem-303" value="" style="endArrow=none;html=1;rounded=0;entryX=0.884;entryY=0.433;entryDx=0;entryDy=0;entryPerimeter=0;" parent="1" edge="1">
          <mxGeometry width="50" height="50" relative="1" as="geometry">
            <mxPoint x="-360" y="260.0799999999999" as="sourcePoint" />
            <mxPoint x="-360" y="46.34999999999991" as="targetPoint" />
          </mxGeometry>
        </mxCell>
        <mxCell id="gpkW7kSRFp9-6F2mUtem-304" value="" style="endArrow=none;html=1;rounded=0;" parent="1" edge="1">
          <mxGeometry width="50" height="50" relative="1" as="geometry">
            <mxPoint x="-570" y="550.08" as="sourcePoint" />
            <mxPoint x="-570" y="260.0799999999999" as="targetPoint" />
          </mxGeometry>
        </mxCell>
        <mxCell id="gpkW7kSRFp9-6F2mUtem-307" value="" style="endArrow=none;html=1;rounded=0;" parent="1" edge="1">
          <mxGeometry width="50" height="50" relative="1" as="geometry">
            <mxPoint x="-570" y="260.0799999999999" as="sourcePoint" />
            <mxPoint x="-360" y="260.0799999999999" as="targetPoint" />
          </mxGeometry>
        </mxCell>
        <mxCell id="gpkW7kSRFp9-6F2mUtem-311" value="" style="endArrow=none;html=1;rounded=0;" parent="1" edge="1">
          <mxGeometry width="50" height="50" relative="1" as="geometry">
            <mxPoint x="-1590" y="780.0799999999999" as="sourcePoint" />
            <mxPoint x="-1590" y="-337" as="targetPoint" />
          </mxGeometry>
        </mxCell>
        <mxCell id="gpkW7kSRFp9-6F2mUtem-313" value="" style="endArrow=none;html=1;rounded=0;entryX=0.75;entryY=1;entryDx=0;entryDy=0;" parent="1" edge="1">
          <mxGeometry width="50" height="50" relative="1" as="geometry">
            <mxPoint x="-1590" y="-259.92" as="sourcePoint" />
            <mxPoint x="-680" y="-246.05999999999995" as="targetPoint" />
          </mxGeometry>
        </mxCell>
        <mxCell id="gpkW7kSRFp9-6F2mUtem-314" value=".sign_extend" style="text;html=1;align=center;verticalAlign=middle;whiteSpace=wrap;rounded=0;" parent="1" vertex="1">
          <mxGeometry x="-1560" y="-281.99" width="40" height="14.99" as="geometry" />
        </mxCell>
        <mxCell id="gpkW7kSRFp9-6F2mUtem-317" value=".bitwise_select" style="text;html=1;align=center;verticalAlign=middle;whiteSpace=wrap;rounded=0;" parent="1" vertex="1">
          <mxGeometry x="-1560" y="173" width="40" height="14.99" as="geometry" />
        </mxCell>
        <mxCell id="gpkW7kSRFp9-6F2mUtem-319" value="" style="endArrow=none;html=1;rounded=0;" parent="1" edge="1">
          <mxGeometry width="50" height="50" relative="1" as="geometry">
            <mxPoint x="-1160" y="230.07999999999993" as="sourcePoint" />
            <mxPoint x="-920" y="230.07999999999993" as="targetPoint" />
          </mxGeometry>
        </mxCell>
        <mxCell id="gpkW7kSRFp9-6F2mUtem-320" value="" style="endArrow=none;html=1;rounded=0;" parent="1" edge="1">
          <mxGeometry width="50" height="50" relative="1" as="geometry">
            <mxPoint x="-1590" y="611.99" as="sourcePoint" />
            <mxPoint x="-1470" y="610.08" as="targetPoint" />
          </mxGeometry>
        </mxCell>
        <mxCell id="gpkW7kSRFp9-6F2mUtem-321" value="" style="endArrow=none;html=1;rounded=0;" parent="1" edge="1">
          <mxGeometry width="50" height="50" relative="1" as="geometry">
            <mxPoint x="-1470" y="610.08" as="sourcePoint" />
            <mxPoint x="-1470.29" y="570.08" as="targetPoint" />
          </mxGeometry>
        </mxCell>
        <mxCell id="gpkW7kSRFp9-6F2mUtem-322" value="" style="endArrow=none;html=1;rounded=0;" parent="1" edge="1">
          <mxGeometry width="50" height="50" relative="1" as="geometry">
            <mxPoint x="-1590" y="487.08000000000004" as="sourcePoint" />
            <mxPoint x="-1500" y="486.59000000000003" as="targetPoint" />
          </mxGeometry>
        </mxCell>
        <mxCell id="gpkW7kSRFp9-6F2mUtem-323" value="" style="endArrow=none;html=1;rounded=0;" parent="1" edge="1">
          <mxGeometry width="50" height="50" relative="1" as="geometry">
            <mxPoint x="-1590" y="548.09" as="sourcePoint" />
            <mxPoint x="-1500" y="547.6" as="targetPoint" />
          </mxGeometry>
        </mxCell>
        <mxCell id="gpkW7kSRFp9-6F2mUtem-324" value=".is_immediate" style="text;html=1;align=center;verticalAlign=middle;whiteSpace=wrap;rounded=0;" parent="1" vertex="1">
          <mxGeometry x="-1560" y="590.08" width="40" height="14.99" as="geometry" />
        </mxCell>
        <mxCell id="gpkW7kSRFp9-6F2mUtem-325" value=".immediate" style="text;html=1;align=center;verticalAlign=middle;whiteSpace=wrap;rounded=0;" parent="1" vertex="1">
          <mxGeometry x="-1570" y="465.68000000000006" width="40" height="14.99" as="geometry" />
        </mxCell>
        <mxCell id="gpkW7kSRFp9-6F2mUtem-326" value=".rs2" style="text;html=1;align=center;verticalAlign=middle;whiteSpace=wrap;rounded=0;" parent="1" vertex="1">
          <mxGeometry x="-1590" y="525.08" width="40" height="14.99" as="geometry" />
        </mxCell>
        <mxCell id="gpkW7kSRFp9-6F2mUtem-327" style="edgeStyle=orthogonalEdgeStyle;rounded=0;orthogonalLoop=1;jettySize=auto;html=1;exitX=0.5;exitY=1;exitDx=0;exitDy=0;" parent="1" source="gpkW7kSRFp9-6F2mUtem-324" target="gpkW7kSRFp9-6F2mUtem-324" edge="1">
          <mxGeometry relative="1" as="geometry" />
        </mxCell>
        <mxCell id="gpkW7kSRFp9-6F2mUtem-329" value="" style="endArrow=none;html=1;rounded=0;" parent="1" edge="1">
          <mxGeometry width="50" height="50" relative="1" as="geometry">
            <mxPoint x="-1160" y="660.08" as="sourcePoint" />
            <mxPoint x="-1160" y="227.15999999999997" as="targetPoint" />
          </mxGeometry>
        </mxCell>
        <mxCell id="gpkW7kSRFp9-6F2mUtem-330" value="" style="endArrow=none;html=1;rounded=0;" parent="1" edge="1">
          <mxGeometry width="50" height="50" relative="1" as="geometry">
            <mxPoint x="-1590" y="660.08" as="sourcePoint" />
            <mxPoint x="-1110" y="660.08" as="targetPoint" />
          </mxGeometry>
        </mxCell>
        <mxCell id="gpkW7kSRFp9-6F2mUtem-331" value="" style="endArrow=none;html=1;rounded=0;" parent="1" edge="1">
          <mxGeometry width="50" height="50" relative="1" as="geometry">
            <mxPoint x="-1110" y="660.08" as="sourcePoint" />
            <mxPoint x="-1110.23" y="597.99" as="targetPoint" />
          </mxGeometry>
        </mxCell>
        <mxCell id="gpkW7kSRFp9-6F2mUtem-333" value=".negate" style="text;html=1;align=center;verticalAlign=middle;whiteSpace=wrap;rounded=0;" parent="1" vertex="1">
          <mxGeometry x="-1570" y="605.07" width="20" height="80" as="geometry" />
        </mxCell>
        <mxCell id="gpkW7kSRFp9-6F2mUtem-336" value="" style="endArrow=none;html=1;rounded=0;" parent="1" edge="1">
          <mxGeometry width="50" height="50" relative="1" as="geometry">
            <mxPoint x="-1590" y="701.99" as="sourcePoint" />
            <mxPoint x="-350" y="710.08" as="targetPoint" />
          </mxGeometry>
        </mxCell>
        <mxCell id="gpkW7kSRFp9-6F2mUtem-337" value="" style="endArrow=none;html=1;rounded=0;" parent="1" edge="1">
          <mxGeometry width="50" height="50" relative="1" as="geometry">
            <mxPoint x="-1590" y="741.99" as="sourcePoint" />
            <mxPoint x="-320" y="750.0799999999999" as="targetPoint" />
          </mxGeometry>
        </mxCell>
        <mxCell id="gpkW7kSRFp9-6F2mUtem-338" value="" style="endArrow=none;html=1;rounded=0;" parent="1" edge="1">
          <mxGeometry width="50" height="50" relative="1" as="geometry">
            <mxPoint x="-1590" y="780.0799999999999" as="sourcePoint" />
            <mxPoint x="-170" y="790.0799999999999" as="targetPoint" />
          </mxGeometry>
        </mxCell>
        <mxCell id="gpkW7kSRFp9-6F2mUtem-339" value=".flip_signs" style="text;html=1;align=center;verticalAlign=middle;whiteSpace=wrap;rounded=0;" parent="1" vertex="1">
          <mxGeometry x="-1560" y="650.08" width="20" height="80" as="geometry" />
        </mxCell>
        <mxCell id="gpkW7kSRFp9-6F2mUtem-340" value=".pc" style="text;html=1;align=center;verticalAlign=middle;whiteSpace=wrap;rounded=0;" parent="1" vertex="1">
          <mxGeometry x="-1580" y="685.07" width="20" height="80" as="geometry" />
        </mxCell>
        <mxCell id="gpkW7kSRFp9-6F2mUtem-343" value=".pc_relative" style="text;html=1;align=center;verticalAlign=middle;whiteSpace=wrap;rounded=0;" parent="1" vertex="1">
          <mxGeometry x="-1560" y="730.08" width="20" height="80" as="geometry" />
        </mxCell>
        <mxCell id="gpkW7kSRFp9-6F2mUtem-344" value="" style="endArrow=none;html=1;rounded=0;" parent="1" edge="1">
          <mxGeometry width="50" height="50" relative="1" as="geometry">
            <mxPoint x="-690" y="710.08" as="sourcePoint" />
            <mxPoint x="-690.3199999999999" y="478.08000000000004" as="targetPoint" />
          </mxGeometry>
        </mxCell>
        <mxCell id="gpkW7kSRFp9-6F2mUtem-345" value="" style="endArrow=none;html=1;rounded=0;" parent="1" edge="1">
          <mxGeometry width="50" height="50" relative="1" as="geometry">
            <mxPoint x="-350" y="710.08" as="sourcePoint" />
            <mxPoint x="-350.2199999999999" y="408.03" as="targetPoint" />
          </mxGeometry>
        </mxCell>
        <mxCell id="gpkW7kSRFp9-6F2mUtem-347" value="" style="endArrow=none;html=1;rounded=0;" parent="1" edge="1">
          <mxGeometry width="50" height="50" relative="1" as="geometry">
            <mxPoint x="-321" y="577.7800000000001" as="sourcePoint" />
            <mxPoint x="-281" y="577.7300000000001" as="targetPoint" />
          </mxGeometry>
        </mxCell>
        <mxCell id="gpkW7kSRFp9-6F2mUtem-348" value="" style="endArrow=none;html=1;rounded=0;" parent="1" edge="1">
          <mxGeometry width="50" height="50" relative="1" as="geometry">
            <mxPoint x="-320" y="750.0799999999999" as="sourcePoint" />
            <mxPoint x="-320" y="578.1700000000001" as="targetPoint" />
          </mxGeometry>
        </mxCell>
        <mxCell id="gpkW7kSRFp9-6F2mUtem-350" value="" style="endArrow=none;html=1;rounded=0;" parent="1" edge="1">
          <mxGeometry width="50" height="50" relative="1" as="geometry">
            <mxPoint x="-170" y="790.0799999999999" as="sourcePoint" />
            <mxPoint x="-170.22000000000003" y="467.99" as="targetPoint" />
          </mxGeometry>
        </mxCell>
        <mxCell id="gpkW7kSRFp9-6F2mUtem-352" value="" style="endArrow=none;html=1;rounded=0;" parent="1" edge="1">
          <mxGeometry width="50" height="50" relative="1" as="geometry">
            <mxPoint x="-1640" y="800.0799999999999" as="sourcePoint" />
            <mxPoint x="-1640" y="-337" as="targetPoint" />
          </mxGeometry>
        </mxCell>
        <mxCell id="gpkW7kSRFp9-6F2mUtem-354" value="" style="endArrow=none;html=1;rounded=0;" parent="1" edge="1">
          <mxGeometry width="50" height="50" relative="1" as="geometry">
            <mxPoint x="-1640" y="800.0799999999999" as="sourcePoint" />
            <mxPoint x="-50" y="810" as="targetPoint" />
          </mxGeometry>
        </mxCell>
        <mxCell id="gpkW7kSRFp9-6F2mUtem-355" value="" style="endArrow=none;html=1;rounded=0;" parent="1" edge="1">
          <mxGeometry width="50" height="50" relative="1" as="geometry">
            <mxPoint x="-120" y="420" as="sourcePoint" />
            <mxPoint x="-130" y="-80" as="targetPoint" />
          </mxGeometry>
        </mxCell>
        <mxCell id="gpkW7kSRFp9-6F2mUtem-356" value="" style="endArrow=none;html=1;rounded=0;exitX=0.5;exitY=0;exitDx=0;exitDy=0;" parent="1" source="gpkW7kSRFp9-6F2mUtem-276" edge="1">
          <mxGeometry width="50" height="50" relative="1" as="geometry">
            <mxPoint x="-160" y="417.6300000000001" as="sourcePoint" />
            <mxPoint x="-120" y="416" as="targetPoint" />
          </mxGeometry>
        </mxCell>
        <mxCell id="gpkW7kSRFp9-6F2mUtem-357" value="" style="endArrow=classic;html=1;rounded=0;" parent="1" edge="1">
          <mxGeometry width="50" height="50" relative="1" as="geometry">
            <mxPoint x="-60" y="90" as="sourcePoint" />
            <mxPoint x="-20" y="90" as="targetPoint" />
          </mxGeometry>
        </mxCell>
        <mxCell id="gpkW7kSRFp9-6F2mUtem-358" value="" style="endArrow=none;html=1;rounded=0;" parent="1" edge="1">
          <mxGeometry width="50" height="50" relative="1" as="geometry">
            <mxPoint x="-50" y="810" as="sourcePoint" />
            <mxPoint x="-60" y="90" as="targetPoint" />
          </mxGeometry>
        </mxCell>
        <mxCell id="gpkW7kSRFp9-6F2mUtem-359" value="" style="endArrow=none;html=1;rounded=0;" parent="1" edge="1">
          <mxGeometry width="50" height="50" relative="1" as="geometry">
            <mxPoint x="-90" y="650" as="sourcePoint" />
            <mxPoint x="-100" y="-2" as="targetPoint" />
          </mxGeometry>
        </mxCell>
        <mxCell id="gpkW7kSRFp9-6F2mUtem-360" value="" style="endArrow=none;html=1;rounded=0;" parent="1" edge="1">
          <mxGeometry width="50" height="50" relative="1" as="geometry">
            <mxPoint x="-590" y="650" as="sourcePoint" />
            <mxPoint x="-590" y="428.18000000000006" as="targetPoint" />
          </mxGeometry>
        </mxCell>
        <mxCell id="gpkW7kSRFp9-6F2mUtem-361" value="" style="endArrow=none;html=1;rounded=0;" parent="1" edge="1">
          <mxGeometry width="50" height="50" relative="1" as="geometry">
            <mxPoint x="-590" y="650.0800000000003" as="sourcePoint" />
            <mxPoint x="-90" y="652" as="targetPoint" />
          </mxGeometry>
        </mxCell>
        <mxCell id="gpkW7kSRFp9-6F2mUtem-362" value="" style="endArrow=none;html=1;rounded=0;" parent="1" edge="1">
          <mxGeometry width="50" height="50" relative="1" as="geometry">
            <mxPoint x="-189.99999999999997" y="87.98000000000002" as="sourcePoint" />
            <mxPoint x="-160" y="88" as="targetPoint" />
          </mxGeometry>
        </mxCell>
        <mxCell id="gpkW7kSRFp9-6F2mUtem-363" value="" style="endArrow=none;html=1;rounded=0;" parent="1" edge="1">
          <mxGeometry width="50" height="50" relative="1" as="geometry">
            <mxPoint x="-160" y="87.07999999999998" as="sourcePoint" />
            <mxPoint x="-160" y="-310" as="targetPoint" />
          </mxGeometry>
        </mxCell>
        <mxCell id="gpkW7kSRFp9-6F2mUtem-364" value="" style="endArrow=classic;html=1;rounded=0;" parent="1" edge="1">
          <mxGeometry width="50" height="50" relative="1" as="geometry">
            <mxPoint x="-160" y="-311" as="sourcePoint" />
            <mxPoint x="-20" y="-310.87" as="targetPoint" />
          </mxGeometry>
        </mxCell>
        <mxCell id="gpkW7kSRFp9-6F2mUtem-365" value="" style="endArrow=classic;html=1;rounded=0;entryX=0.75;entryY=1;entryDx=0;entryDy=0;" parent="1" edge="1">
          <mxGeometry width="50" height="50" relative="1" as="geometry">
            <mxPoint x="-320" y="-160" as="sourcePoint" />
            <mxPoint x="-20" y="-160" as="targetPoint" />
          </mxGeometry>
        </mxCell>
        <mxCell id="gpkW7kSRFp9-6F2mUtem-366" value="" style="endArrow=classic;html=1;rounded=0;entryX=0.75;entryY=1;entryDx=0;entryDy=0;" parent="1" edge="1">
          <mxGeometry width="50" height="50" relative="1" as="geometry">
            <mxPoint x="-320" y="-239.92000000000002" as="sourcePoint" />
            <mxPoint x="-20" y="-239.92000000000002" as="targetPoint" />
          </mxGeometry>
        </mxCell>
        <mxCell id="gpkW7kSRFp9-6F2mUtem-367" value="" style="endArrow=none;html=1;rounded=0;" parent="1" edge="1">
          <mxGeometry width="50" height="50" relative="1" as="geometry">
            <mxPoint x="-319.99999999999994" y="-241.99" as="sourcePoint" />
            <mxPoint x="-320" y="-300" as="targetPoint" />
          </mxGeometry>
        </mxCell>
        <mxCell id="gpkW7kSRFp9-6F2mUtem-368" value="" style="endArrow=none;html=1;rounded=0;" parent="1" edge="1">
          <mxGeometry width="50" height="50" relative="1" as="geometry">
            <mxPoint x="-320" y="-10" as="sourcePoint" />
            <mxPoint x="-320" y="-158.01" as="targetPoint" />
          </mxGeometry>
        </mxCell>
        <mxCell id="gpkW7kSRFp9-6F2mUtem-369" value="" style="endArrow=none;html=1;rounded=0;" parent="1" edge="1">
          <mxGeometry width="50" height="50" relative="1" as="geometry">
            <mxPoint x="-380" y="-10.170000000000016" as="sourcePoint" />
            <mxPoint x="-320" y="-10" as="targetPoint" />
          </mxGeometry>
        </mxCell>
        <mxCell id="gpkW7kSRFp9-6F2mUtem-370" value="" style="endArrow=none;html=1;rounded=0;" parent="1" edge="1">
          <mxGeometry width="50" height="50" relative="1" as="geometry">
            <mxPoint x="-380" y="-300.17" as="sourcePoint" />
            <mxPoint x="-320" y="-300" as="targetPoint" />
          </mxGeometry>
        </mxCell>
        <mxCell id="gpkW7kSRFp9-6F2mUtem-371" value="&lt;div&gt;out = in;&lt;br&gt;&lt;br&gt;&lt;/div&gt;&lt;div&gt;if (flush_req)&lt;br&gt;&lt;/div&gt;&amp;nbsp;out = 0;" style="ellipse;whiteSpace=wrap;html=1;aspect=fixed;" parent="1" vertex="1">
          <mxGeometry x="-250" y="-420" width="90" height="90" as="geometry" />
        </mxCell>
        <mxCell id="gpkW7kSRFp9-6F2mUtem-372" value="" style="endArrow=classic;html=1;rounded=0;" parent="1" edge="1">
          <mxGeometry width="50" height="50" relative="1" as="geometry">
            <mxPoint x="-160" y="-370" as="sourcePoint" />
            <mxPoint x="-20" y="-369.87" as="targetPoint" />
          </mxGeometry>
        </mxCell>
        <mxCell id="gpkW7kSRFp9-6F2mUtem-373" value="" style="endArrow=none;html=1;rounded=0;" parent="1" edge="1">
          <mxGeometry width="50" height="50" relative="1" as="geometry">
            <mxPoint x="-1680" y="-390" as="sourcePoint" />
            <mxPoint x="-255.5" y="-375.17" as="targetPoint" />
          </mxGeometry>
        </mxCell>
        <mxCell id="gpkW7kSRFp9-6F2mUtem-374" value="valid_i" style="text;html=1;align=center;verticalAlign=middle;whiteSpace=wrap;rounded=0;" parent="1" vertex="1">
          <mxGeometry x="-1680" y="-410" width="40" height="13" as="geometry" />
        </mxCell>
        <mxCell id="70oh9FuQs2m_L9_d9KGz-2" value="" style="endArrow=none;html=1;rounded=0;" parent="1" edge="1">
          <mxGeometry width="50" height="50" relative="1" as="geometry">
            <mxPoint x="-540" y="284.0799999999999" as="sourcePoint" />
            <mxPoint x="-520" y="244.07999999999993" as="targetPoint" />
          </mxGeometry>
        </mxCell>
        <mxCell id="70oh9FuQs2m_L9_d9KGz-3" value="[4:0]" style="text;html=1;align=center;verticalAlign=middle;whiteSpace=wrap;rounded=0;" parent="1" vertex="1">
          <mxGeometry x="-520" y="224.9999999999999" width="40" height="30" as="geometry" />
        </mxCell>
      </root>
    </mxGraphModel>
  </diagram>
</mxfile>
